<svg width="18" height="16" viewBox="0 0 18 16" fill="none" xmlns="http://www.w3.org/2000/svg">
<path d="M6.46875 0.40625L4.78125 2.09375H2.25C1.32056 2.09375 0.5625 2.85181 0.5625 3.78125V13.9062C0.5625 14.8357 1.32056 15.5938 2.25 15.5938H15.75C16.6794 15.5938 17.4375 14.8357 17.4375 13.9062V3.78125C17.4375 2.85181 16.6794 2.09375 15.75 2.09375H13.2188L11.5312 0.40625H6.46875ZM9 4.625C11.3632 4.625 13.2188 6.48059 13.2188 8.84375C13.2188 11.2069 11.3632 13.0625 9 13.0625C6.63684 13.0625 4.78125 11.2069 4.78125 8.84375C4.78125 6.48059 6.63684 4.625 9 4.625ZM9 5.89062C7.36853 5.89062 6.04688 7.21228 6.04688 8.84375C6.04688 10.4752 7.36853 11.7969 9 11.7969C10.6315 11.7969 11.9531 10.4752 11.9531 8.84375C11.9531 7.21228 10.6315 5.89062 9 5.89062Z" fill="#F2F4FA"/>
</svg>
