<svg width="11" height="11" viewBox="0 0 11 11" fill="none" xmlns="http://www.w3.org/2000/svg">
<path d="M9.375 0.25C9.67969 0.25 9.9375 0.367188 10.1719 0.578125C10.3828 0.8125 10.5 1.07031 10.5 1.375V9.625C10.5 9.95312 10.3828 10.2109 10.1719 10.4219C9.9375 10.6562 9.67969 10.75 9.375 10.75H1.125C0.796875 10.75 0.539062 10.6562 0.328125 10.4219C0.09375 10.2109 0 9.95312 0 9.625V1.375C0 1.07031 0.09375 0.8125 0.328125 0.578125C0.539062 0.367188 0.796875 0.25 1.125 0.25H9.375ZM9.375 9.625V1.375H1.125V9.625H9.375ZM8.53125 3.95312C8.57812 3.90625 8.625 3.85938 8.625 3.76562C8.625 3.69531 8.57812 3.625 8.53125 3.55469L8.01562 3.03906C7.94531 2.99219 7.875 2.94531 7.80469 2.94531C7.71094 2.94531 7.66406 2.99219 7.61719 3.03906L4.28906 6.32031L2.90625 4.89062C2.83594 4.84375 2.76562 4.82031 2.69531 4.82031C2.60156 4.82031 2.55469 4.84375 2.50781 4.89062L1.96875 5.42969C1.89844 5.47656 1.875 5.54688 1.875 5.61719C1.875 5.71094 1.89844 5.78125 1.96875 5.82812L4.10156 7.96094C4.14844 8.03125 4.19531 8.05469 4.28906 8.05469C4.35938 8.05469 4.42969 8.03125 4.5 7.96094L8.53125 3.95312Z" fill="white"/>
</svg>
