
<svg width="16" height="19" viewBox="0 0 16 19" fill="none" xmlns="http://www.w3.org/2000/svg">
<path d="M14.0625 2.5C14.5195 2.5 14.9062 2.67578 15.2578 2.99219C15.5742 3.34375 15.75 3.73047 15.75 4.1875V16.5625C15.75 17.0547 15.5742 17.4414 15.2578 17.7578C14.9062 18.1094 14.5195 18.25 14.0625 18.25H1.6875C1.19531 18.25 0.808594 18.1094 0.492188 17.7578C0.140625 17.4414 0 17.0547 0 16.5625V4.1875C0 3.73047 0.140625 3.34375 0.492188 2.99219C0.808594 2.67578 1.19531 2.5 1.6875 2.5H3.375V0.671875C3.375 0.566406 3.41016 0.460938 3.48047 0.390625C3.55078 0.320312 3.65625 0.25 3.79688 0.25H4.07812C4.18359 0.25 4.28906 0.320312 4.35938 0.390625C4.42969 0.460938 4.5 0.566406 4.5 0.671875V2.5H11.25V0.671875C11.25 0.566406 11.2852 0.460938 11.3555 0.390625C11.4258 0.320312 11.5312 0.25 11.6719 0.25H11.9531C12.0586 0.25 12.1641 0.320312 12.2344 0.390625C12.3047 0.460938 12.375 0.566406 12.375 0.671875V2.5H14.0625ZM1.6875 3.625C1.51172 3.625 1.37109 3.69531 1.26562 3.80078C1.16016 3.90625 1.125 4.04688 1.125 4.1875V5.875H14.625V4.1875C14.625 4.04688 14.5547 3.90625 14.4492 3.80078C14.3438 3.69531 14.2031 3.625 14.0625 3.625H1.6875ZM14.0625 17.125C14.2031 17.125 14.3438 17.0898 14.4492 16.9844C14.5547 16.8789 14.625 16.7383 14.625 16.5625V7H1.125V16.5625C1.125 16.7383 1.16016 16.8789 1.26562 16.9844C1.37109 17.0898 1.51172 17.125 1.6875 17.125H14.0625ZM5.20312 11.5C5.30859 11.5 5.41406 11.4648 5.48438 11.3945C5.55469 11.3242 5.625 11.2188 5.625 11.0781V9.67188C5.625 9.56641 5.55469 9.46094 5.48438 9.39062C5.41406 9.32031 5.30859 9.25 5.20312 9.25H3.79688C3.65625 9.25 3.55078 9.32031 3.48047 9.39062C3.41016 9.46094 3.375 9.56641 3.375 9.67188V11.0781C3.375 11.2188 3.41016 11.3242 3.48047 11.3945C3.55078 11.4648 3.65625 11.5 3.79688 11.5H5.20312ZM8.57812 11.5C8.68359 11.5 8.78906 11.4648 8.85938 11.3945C8.92969 11.3242 9 11.2188 9 11.0781V9.67188C9 9.56641 8.92969 9.46094 8.85938 9.39062C8.78906 9.32031 8.68359 9.25 8.57812 9.25H7.17188C7.03125 9.25 6.92578 9.32031 6.85547 9.39062C6.78516 9.46094 6.75 9.56641 6.75 9.67188V11.0781C6.75 11.2188 6.78516 11.3242 6.85547 11.3945C6.92578 11.4648 7.03125 11.5 7.17188 11.5H8.57812ZM11.9531 11.5C12.0586 11.5 12.1641 11.4648 12.2344 11.3945C12.3047 11.3242 12.375 11.2188 12.375 11.0781V9.67188C12.375 9.56641 12.3047 9.46094 12.2344 9.39062C12.1641 9.32031 12.0586 9.25 11.9531 9.25H10.5469C10.4062 9.25 10.3008 9.32031 10.2305 9.39062C10.1602 9.46094 10.125 9.56641 10.125 9.67188V11.0781C10.125 11.2188 10.1602 11.3242 10.2305 11.3945C10.3008 11.4648 10.4062 11.5 10.5469 11.5H11.9531ZM8.57812 14.875C8.68359 14.875 8.78906 14.8398 8.85938 14.7695C8.92969 14.6992 9 14.5938 9 14.4531V13.0469C9 12.9414 8.92969 12.8359 8.85938 12.7656C8.78906 12.6953 8.68359 12.625 8.57812 12.625H7.17188C7.03125 12.625 6.92578 12.6953 6.85547 12.7656C6.78516 12.8359 6.75 12.9414 6.75 13.0469V14.4531C6.75 14.5938 6.78516 14.6992 6.85547 14.7695C6.92578 14.8398 7.03125 14.875 7.17188 14.875H8.57812ZM5.20312 14.875C5.30859 14.875 5.41406 14.8398 5.48438 14.7695C5.55469 14.6992 5.625 14.5938 5.625 14.4531V13.0469C5.625 12.9414 5.55469 12.8359 5.48438 12.7656C5.41406 12.6953 5.30859 12.625 5.20312 12.625H3.79688C3.65625 12.625 3.55078 12.6953 3.48047 12.7656C3.41016 12.8359 3.375 12.9414 3.375 13.0469V14.4531C3.375 14.5938 3.41016 14.6992 3.48047 14.7695C3.55078 14.8398 3.65625 14.875 3.79688 14.875H5.20312ZM11.9531 14.875C12.0586 14.875 12.1641 14.8398 12.2344 14.7695C12.3047 14.6992 12.375 14.5938 12.375 14.4531V13.0469C12.375 12.9414 12.3047 12.8359 12.2344 12.7656C12.1641 12.6953 12.0586 12.625 11.9531 12.625H10.5469C10.4062 12.625 10.3008 12.6953 10.2305 12.7656C10.1602 12.8359 10.125 12.9414 10.125 13.0469V14.4531C10.125 14.5938 10.1602 14.6992 10.2305 14.7695C10.3008 14.8398 10.4062 14.875 10.5469 14.875H11.9531Z" fill="#3C5185"/>
</svg>
