<svg width="216" height="90" viewBox="0 0 216 90" fill="none" xmlns="http://www.w3.org/2000/svg">
<rect width="216" height="90" rx="4" fill="#F2F4FA"/>
<path d="M122.584 28.334H93.4169C91.7593 28.334 90.1696 28.9925 88.9975 30.1646C87.8254 31.3367 87.1669 32.9264 87.1669 34.584V55.4173C87.1669 57.0749 87.8254 58.6646 88.9975 59.8367C90.1696 61.0088 91.7593 61.6673 93.4169 61.6673H122.584C124.241 61.6673 125.831 61.0088 127.003 59.8367C128.175 58.6646 128.834 57.0749 128.834 55.4173V34.584C128.834 32.9264 128.175 31.3367 127.003 30.1646C125.831 28.9925 124.241 28.334 122.584 28.334ZM93.4169 57.5006C92.8643 57.5006 92.3344 57.2812 91.9437 56.8905C91.553 56.4998 91.3335 55.9698 91.3335 55.4173V50.3756L98.2085 43.5215C98.598 43.1398 99.1216 42.9259 99.6669 42.9259C100.212 42.9259 100.736 43.1398 101.125 43.5215L115.104 57.5006H93.4169ZM124.667 55.4173C124.667 55.9698 124.447 56.4998 124.057 56.8905C123.666 57.2812 123.136 57.5006 122.584 57.5006H120.979L113.042 49.5215L114.875 47.6881C115.265 47.3064 115.788 47.0926 116.334 47.0926C116.879 47.0926 117.402 47.3064 117.792 47.6881L124.667 54.5423V55.4173ZM124.667 48.6673L120.75 44.7715C119.563 43.6307 117.98 42.9936 116.334 42.9936C114.687 42.9936 113.104 43.6307 111.917 44.7715L110.084 46.6048L104.084 40.6048C102.896 39.4641 101.313 38.827 99.6669 38.827C98.0203 38.827 96.4376 39.4641 95.2502 40.6048L91.3335 44.5006V34.584C91.3335 34.0314 91.553 33.5015 91.9437 33.1108C92.3344 32.7201 92.8643 32.5007 93.4169 32.5007H122.584C123.136 32.5007 123.666 32.7201 124.057 33.1108C124.447 33.5015 124.667 34.0314 124.667 34.584V48.6673Z" fill="#CCCFDB"/>
</svg>
