<svg width="39" height="14" viewBox="0 0 39 14" fill="none" xmlns="http://www.w3.org/2000/svg">
<path d="M6.3185 13.24C5.4865 13.24 4.73983 13.112 4.0785 12.856C3.41717 12.6 2.85717 12.2267 2.3985 11.736C1.93983 11.2347 1.58783 10.6267 1.3425 9.912C1.09717 9.19733 0.9745 8.376 0.9745 7.448C0.9745 6.52 1.11317 5.69867 1.3905 4.984C1.6785 4.26933 2.06783 3.66667 2.5585 3.176C3.04917 2.67467 3.62517 2.296 4.2865 2.04C4.94783 1.784 5.65717 1.656 6.4145 1.656C6.87317 1.656 7.28917 1.69333 7.6625 1.768C8.03583 1.832 8.36117 1.90667 8.6385 1.992C8.91583 2.07733 9.14517 2.168 9.3265 2.264C9.50783 2.36 9.63583 2.42933 9.7105 2.472L9.1185 4.12C8.8625 3.96 8.4945 3.81067 8.0145 3.672C7.54517 3.52267 7.03317 3.448 6.4785 3.448C5.9985 3.448 5.5505 3.53333 5.1345 3.704C4.7185 3.864 4.35583 4.10933 4.0465 4.44C3.74783 4.77067 3.51317 5.18667 3.3425 5.688C3.17183 6.18933 3.0865 6.77067 3.0865 7.432C3.0865 8.01867 3.1505 8.55733 3.2785 9.048C3.41717 9.53867 3.62517 9.96533 3.9025 10.328C4.17983 10.68 4.53183 10.9573 4.9585 11.16C5.38517 11.352 5.89717 11.448 6.4945 11.448C7.20917 11.448 7.7905 11.3787 8.2385 11.24C8.6865 11.0907 9.03317 10.952 9.2785 10.824L9.8225 12.472C9.6945 12.5573 9.5185 12.6427 9.2945 12.728C9.08117 12.8133 8.82517 12.8987 8.5265 12.984C8.22783 13.0587 7.89183 13.1173 7.5185 13.16C7.14517 13.2133 6.74517 13.24 6.3185 13.24ZM13.4496 13H11.5136V4.632H13.4496V13ZM13.6576 2.184C13.6576 2.54667 13.5403 2.83467 13.3056 3.048C13.071 3.26133 12.7936 3.368 12.4736 3.368C12.143 3.368 11.8603 3.26133 11.6256 3.048C11.391 2.83467 11.2736 2.54667 11.2736 2.184C11.2736 1.81067 11.391 1.51733 11.6256 1.304C11.8603 1.09067 12.143 0.983999 12.4736 0.983999C12.7936 0.983999 13.071 1.09067 13.3056 1.304C13.5403 1.51733 13.6576 1.81067 13.6576 2.184ZM18.0155 11.608C18.5275 11.608 18.9008 11.5493 19.1355 11.432C19.3702 11.304 19.4875 11.0907 19.4875 10.792C19.4875 10.5147 19.3595 10.2853 19.1035 10.104C18.8582 9.92267 18.4475 9.72533 17.8715 9.512C17.5195 9.384 17.1942 9.25067 16.8955 9.112C16.6075 8.96267 16.3568 8.792 16.1435 8.6C15.9302 8.408 15.7595 8.17867 15.6315 7.912C15.5142 7.63467 15.4555 7.29867 15.4555 6.904C15.4555 6.136 15.7382 5.53333 16.3035 5.096C16.8688 4.648 17.6368 4.424 18.6075 4.424C19.0982 4.424 19.5675 4.472 20.0155 4.568C20.4635 4.65333 20.7995 4.73867 21.0235 4.824L20.6715 6.392C20.4582 6.296 20.1862 6.21067 19.8555 6.136C19.5248 6.05067 19.1408 6.008 18.7035 6.008C18.3088 6.008 17.9888 6.07733 17.7435 6.216C17.4982 6.344 17.3755 6.54667 17.3755 6.824C17.3755 6.96267 17.3968 7.08533 17.4395 7.192C17.4928 7.29867 17.5782 7.4 17.6955 7.496C17.8128 7.58133 17.9675 7.672 18.1595 7.768C18.3515 7.85333 18.5862 7.944 18.8635 8.04C19.3222 8.21067 19.7115 8.38133 20.0315 8.552C20.3515 8.712 20.6128 8.89867 20.8155 9.112C21.0288 9.31467 21.1835 9.54933 21.2795 9.816C21.3755 10.0827 21.4235 10.4027 21.4235 10.776C21.4235 11.576 21.1248 12.184 20.5275 12.6C19.9408 13.0053 19.0982 13.208 17.9995 13.208C17.2635 13.208 16.6715 13.144 16.2235 13.016C15.7755 12.8987 15.4608 12.8027 15.2795 12.728L15.6155 11.112C15.9035 11.2293 16.2448 11.3413 16.6395 11.448C17.0448 11.5547 17.5035 11.608 18.0155 11.608ZM22.768 8.824C22.768 8.20533 22.864 7.62933 23.056 7.096C23.248 6.552 23.52 6.08267 23.872 5.688C24.2347 5.29333 24.672 4.984 25.184 4.76C25.696 4.536 26.272 4.424 26.912 4.424C27.7013 4.424 28.448 4.568 29.152 4.856L28.736 6.44C28.512 6.344 28.256 6.264 27.968 6.2C27.6907 6.136 27.392 6.104 27.072 6.104C26.3147 6.104 25.7387 6.344 25.344 6.824C24.9493 7.29333 24.752 7.96 24.752 8.824C24.752 9.656 24.9387 10.3173 25.312 10.808C25.6853 11.288 26.3147 11.528 27.2 11.528C27.5307 11.528 27.856 11.496 28.176 11.432C28.496 11.368 28.7733 11.288 29.008 11.192L29.28 12.792C29.0667 12.8987 28.7413 12.9947 28.304 13.08C27.8773 13.1653 27.4347 13.208 26.976 13.208C26.2613 13.208 25.6373 13.1013 25.104 12.888C24.5813 12.664 24.144 12.36 23.792 11.976C23.4507 11.5813 23.1947 11.1173 23.024 10.584C22.8533 10.04 22.768 9.45333 22.768 8.824ZM38.175 8.808C38.175 9.46933 38.079 10.072 37.887 10.616C37.695 11.16 37.423 11.624 37.071 12.008C36.719 12.392 36.2923 12.6907 35.791 12.904C35.3003 13.1173 34.7563 13.224 34.159 13.224C33.5617 13.224 33.0177 13.1173 32.527 12.904C32.0363 12.6907 31.615 12.392 31.263 12.008C30.911 11.624 30.6337 11.16 30.431 10.616C30.239 10.072 30.143 9.46933 30.143 8.808C30.143 8.14667 30.239 7.54933 30.431 7.016C30.6337 6.472 30.911 6.008 31.263 5.624C31.6257 5.24 32.0523 4.94667 32.543 4.744C33.0337 4.53067 33.5723 4.424 34.159 4.424C34.7457 4.424 35.2843 4.53067 35.775 4.744C36.2763 4.94667 36.703 5.24 37.055 5.624C37.407 6.008 37.679 6.472 37.871 7.016C38.0737 7.54933 38.175 8.14667 38.175 8.808ZM36.191 8.808C36.191 7.976 36.0097 7.32 35.647 6.84C35.295 6.34933 34.799 6.104 34.159 6.104C33.519 6.104 33.0177 6.34933 32.655 6.84C32.303 7.32 32.127 7.976 32.127 8.808C32.127 9.65067 32.303 10.3173 32.655 10.808C33.0177 11.2987 33.519 11.544 34.159 11.544C34.799 11.544 35.295 11.2987 35.647 10.808C36.0097 10.3173 36.191 9.65067 36.191 8.808Z" fill="#666F94"/>
</svg>
