<svg width="16" height="16" viewBox="0 0 16 16" fill="none" xmlns="http://www.w3.org/2000/svg">
<path d="M15.75 8C15.75 6.625 15.375 5.3125 14.6875 4.125C14 2.9375 13.0625 2 11.875 1.3125C10.6875 0.625 9.375 0.25 8 0.25C6.59375 0.25 5.3125 0.625 4.125 1.3125C2.9375 2 1.96875 2.9375 1.28125 4.125C0.59375 5.3125 0.25 6.625 0.25 8C0.25 9.40625 0.59375 10.6875 1.28125 11.875C1.96875 13.0625 2.9375 14.0312 4.125 14.7188C5.3125 15.4062 6.59375 15.75 8 15.75C9.375 15.75 10.6875 15.4062 11.875 14.7188C13.0625 14.0312 14 13.0625 14.6875 11.875C15.375 10.6875 15.75 9.40625 15.75 8ZM7.09375 12.0938C7 12.2188 6.875 12.25 6.75 12.25C6.59375 12.25 6.46875 12.2188 6.40625 12.0938L3.15625 8.84375C3.03125 8.78125 3 8.65625 3 8.5C3 8.375 3.03125 8.25 3.15625 8.15625L3.84375 7.4375C3.9375 7.34375 4.0625 7.28125 4.1875 7.28125C4.3125 7.28125 4.4375 7.34375 4.5625 7.4375L6.75 9.625L11.4375 4.9375C11.5312 4.84375 11.6562 4.78125 11.7812 4.78125C11.9062 4.78125 12.0312 4.84375 12.1562 4.9375L12.8438 5.65625C12.9375 5.75 13 5.875 13 6C13 6.15625 12.9375 6.28125 12.8438 6.34375L7.09375 12.0938Z" fill="#219653"/>
</svg>
