<svg width="14" height="15" viewBox="0 0 14 15" fill="none" xmlns="http://www.w3.org/2000/svg">
<path d="M7 1.84375C5.90625 1.84375 4.92188 2.11719 4.01953 2.63672C3.11719 3.18359 2.40625 3.89453 1.88672 4.79688C1.33984 5.69922 1.09375 6.68359 1.09375 7.75C1.09375 8.84375 1.33984 9.82812 1.88672 10.7305C2.40625 11.6328 3.11719 12.3438 4.01953 12.8633C4.92188 13.4102 5.90625 13.6562 7 13.6562C8.06641 13.6562 9.05078 13.4102 9.95312 12.8633C10.8555 12.3438 11.5664 11.6328 12.1133 10.7305C12.6328 9.82812 12.9062 8.84375 12.9062 7.75C12.9062 6.68359 12.6328 5.69922 12.1133 4.79688C11.5664 3.89453 10.8555 3.18359 9.95312 2.63672C9.02344 2.11719 8.03906 1.84375 7 1.84375ZM7 0.96875C8.20312 0.96875 9.35156 1.29688 10.3906 1.89844C11.4297 2.5 12.25 3.32031 12.8516 4.35938C13.4531 5.39844 13.7812 6.54688 13.7812 7.75C13.7812 8.98047 13.4531 10.1016 12.8516 11.1406C12.25 12.1797 11.4297 13.0273 10.3906 13.6289C9.35156 14.2305 8.20312 14.5312 7 14.5312C5.76953 14.5312 4.64844 14.2305 3.60938 13.6289C2.57031 13.0273 1.72266 12.1797 1.12109 11.1406C0.519531 10.1016 0.21875 8.98047 0.21875 7.75C0.21875 6.54688 0.519531 5.39844 1.12109 4.35938C1.72266 3.32031 2.57031 2.5 3.60938 1.89844C4.64844 1.29688 5.76953 0.96875 7 0.96875ZM6.01562 10.375C5.90625 10.375 5.82422 10.4297 5.76953 10.4844C5.71484 10.5391 5.6875 10.6211 5.6875 10.7031V10.9219C5.6875 11.0312 5.71484 11.1133 5.76953 11.168C5.82422 11.2227 5.90625 11.25 6.01562 11.25H7.98438C8.06641 11.25 8.14844 11.2227 8.20312 11.168C8.25781 11.1133 8.3125 11.0312 8.3125 10.9219V10.7031C8.3125 10.6211 8.25781 10.5391 8.20312 10.4844C8.14844 10.4297 8.06641 10.375 7.98438 10.375H7.65625V6.54688C7.65625 6.46484 7.60156 6.38281 7.54688 6.32812C7.49219 6.27344 7.41016 6.21875 7.32812 6.21875H6.01562C5.90625 6.21875 5.82422 6.27344 5.76953 6.32812C5.71484 6.38281 5.6875 6.46484 5.6875 6.54688V6.76562C5.6875 6.875 5.71484 6.95703 5.76953 7.01172C5.82422 7.06641 5.90625 7.09375 6.01562 7.09375H6.34375V10.375H6.01562ZM7 3.8125C7.21875 3.8125 7.4375 3.92188 7.60156 4.08594C7.76562 4.25 7.875 4.46875 7.875 4.6875C7.875 4.93359 7.76562 5.15234 7.60156 5.31641C7.4375 5.48047 7.21875 5.5625 7 5.5625C6.75391 5.5625 6.53516 5.48047 6.37109 5.31641C6.20703 5.15234 6.125 4.93359 6.125 4.6875C6.125 4.46875 6.20703 4.25 6.37109 4.08594C6.53516 3.92188 6.75391 3.8125 7 3.8125Z" fill="white"/>
</svg>
