<svg width="174" height="35" viewBox="0 0 174 35" fill="none" xmlns="http://www.w3.org/2000/svg">
<path fill-rule="evenodd" clip-rule="evenodd" d="M8.55249 6.42138C8.26517 6.50499 7.95675 6.4876 7.68129 6.37226C7.50947 6.30011 7.35612 6.19202 7.23217 6.05568C7.10821 5.91934 7.01668 5.7581 6.96411 5.58345C6.91154 5.40879 6.89922 5.22502 6.92801 5.0452C6.95681 4.86539 7.02602 4.69396 7.13072 4.54312C9.05772 1.76966 11.9635 0 15.2058 0C18.3525 0 21.1856 1.66556 23.1126 4.30518C23.2224 4.45555 23.2965 4.62775 23.3295 4.80935C23.3625 4.99094 23.3536 5.1774 23.3035 5.35526C23.2534 5.53311 23.1633 5.69793 23.0397 5.8378C22.9161 5.97767 22.7621 6.08911 22.5888 6.16406C22.3175 6.27619 22.0147 6.29416 21.7314 6.21496C21.448 6.13576 21.2013 5.9642 21.0327 5.72908C19.5798 3.74379 17.4998 2.49462 15.2058 2.49462C12.8391 2.49462 10.7094 3.82187 9.25271 5.91497C9.0877 6.15849 8.83981 6.33776 8.55249 6.42138ZM27.6462 19.2045C27.3604 19.374 27.0176 19.428 26.6913 19.3548L26.6569 19.3325C26.3302 19.2548 26.0481 19.0553 25.8714 18.7771C25.6947 18.4988 25.6376 18.1642 25.7125 17.8454C26.3071 15.4496 26.7262 13.0158 26.9666 10.5623C26.9892 10.346 26.9531 10.1278 26.8621 9.92923C26.7711 9.7307 26.6282 9.55879 26.4476 9.43061C26.2671 9.30242 26.0552 9.22241 25.833 9.19853C25.6108 9.17466 25.386 9.20775 25.181 9.29451L15.3969 13.4175C15.2358 13.4856 15.0621 13.5207 14.8865 13.5207C14.7109 13.5207 14.5371 13.4856 14.3761 13.4175L4.5881 9.29451C4.38362 9.20883 4.1597 9.17647 3.93843 9.20061C3.71716 9.22476 3.50618 9.30457 3.32631 9.43218C3.14644 9.55979 3.00389 9.73079 2.91271 9.92831C2.82154 10.1258 2.78489 10.3431 2.80639 10.5586C2.9555 12.0457 3.20785 13.8413 3.59019 15.7634C3.63838 15.9969 3.7544 16.212 3.92449 16.3834C4.09458 16.5547 4.31161 16.675 4.54987 16.7301L25.7507 21.7193C25.9296 21.7614 26.0971 21.8404 26.2418 21.951C26.3865 22.0615 26.5052 22.201 26.5896 22.36C26.6741 22.519 26.7225 22.6938 26.7314 22.8725C26.7404 23.0513 26.7098 23.2298 26.6416 23.396C24.5502 28.5303 21.067 33.263 15.2669 34.9471C15.0263 35.0177 14.7696 35.0177 14.529 34.9471C8.79387 33.263 5.3222 28.6269 3.22314 23.5745C3.13531 23.3618 3.10932 23.1298 3.14803 22.9037C3.18673 22.6777 3.28864 22.4663 3.4426 22.2928C3.59655 22.1193 3.79663 21.9904 4.02092 21.92C4.24521 21.8497 4.48508 21.8407 4.71428 21.894H4.74869C4.94708 21.9396 5.13126 22.031 5.28566 22.1604C5.44006 22.2898 5.56013 22.4535 5.63572 22.6376C7.38685 26.8647 10.1359 30.6903 14.4564 32.2778C14.7338 32.378 15.0391 32.378 15.3166 32.2778C18.7348 31.0137 21.1932 28.3444 22.9405 25.1768C23.03 25.008 23.0785 24.8216 23.0825 24.6318C23.0865 24.442 23.0458 24.2538 22.9636 24.0816C22.8813 23.9094 22.7596 23.7577 22.6079 23.6383C22.4561 23.5188 22.2782 23.4347 22.0879 23.3923L2.34376 18.7823C2.11146 18.727 1.89948 18.6102 1.7314 18.4448C1.56331 18.2794 1.44573 18.0719 1.39173 17.8454C0.51288 14.1311 0.0463032 10.3358 0 6.52477C0.000654064 6.3183 0.0540895 6.11522 0.155498 5.93381C0.256907 5.75241 0.403108 5.59836 0.580946 5.48554C0.758783 5.37271 0.962678 5.30465 1.17428 5.28747C1.38589 5.2703 1.59857 5.30454 1.79318 5.38713L14.3761 10.6961C14.5371 10.7642 14.7109 10.7993 14.8865 10.7993C15.0621 10.7993 15.2358 10.7642 15.3969 10.6961L27.9569 5.38713C28.1515 5.30454 28.3641 5.2703 28.5758 5.28747C28.7874 5.30465 28.9912 5.37271 29.1691 5.48554C29.3469 5.59836 29.4931 5.75241 29.5945 5.93381C29.6959 6.11522 29.7494 6.3183 29.75 6.52477C29.7045 10.5424 29.1914 14.5422 28.2207 18.4477C28.1383 18.7632 27.9321 19.0349 27.6462 19.2045Z" fill="url(#paint0_linear)"/>
<path d="M54.1337 23.7967L52.8501 12.4182C52.6896 11.2734 51.9332 10.6893 50.9934 10.6893C50.237 10.6893 49.7098 11.0865 49.3201 11.8808L46.3173 18.1659L43.2916 11.8808C42.9019 11.0865 42.3747 10.6893 41.6183 10.6893C40.7243 10.6893 39.9679 11.25 39.8075 12.4416L38.5238 23.7967C38.3863 24.9416 38.8447 25.8528 39.8762 26.0164C40.9765 26.2267 41.9392 25.5491 42.0767 24.3809L42.5352 20.0351C42.6727 18.493 42.3518 17.465 41.8934 16.1799L41.9851 15.8528L44.6211 22.3715C44.8962 23.1425 45.4921 23.5865 46.3173 23.5865C47.0967 23.5865 47.7156 23.1425 47.9906 22.3715L50.6266 15.8528L50.7413 16.1799C50.2599 17.465 49.9848 18.493 50.1224 20.0117L50.5808 24.3809C50.7183 25.5491 51.6581 26.2267 52.7584 26.0164C53.7899 25.8295 54.2712 24.9416 54.1337 23.7967Z" fill="url(#paint1_linear)"/>
<path d="M57.7554 12.9089C58.9244 12.9089 59.7954 12.021 59.7954 10.8294C59.7954 9.63785 58.9244 8.75 57.7554 8.75C56.5864 8.75 55.6924 9.63785 55.6924 10.8294C55.6924 12.021 56.5864 12.9089 57.7554 12.9089ZM57.7554 14.3341C56.701 14.3341 55.9445 15.1285 55.9445 16.2266V24.1706C55.9445 25.2687 56.701 26.0631 57.7554 26.0631C58.8098 26.0631 59.5433 25.2687 59.5433 24.1706V17.979H57.7095V17.8154C58.7181 17.8154 59.5433 17.3014 59.5433 16.4136V16.1799C59.5433 15.1285 58.8098 14.3341 57.7554 14.3341Z" fill="url(#paint2_linear)"/>
<path d="M68.3006 14.1472C66.8106 14.1472 65.6875 14.8014 65.0227 15.5724H64.8852V15.5491C64.7018 14.7313 64.0371 14.3341 63.3494 14.3341C62.2721 14.3341 61.5386 15.1519 61.5386 16.25V24.1472C61.5386 25.2453 62.2492 26.0631 63.3265 26.0631C64.4038 26.0631 65.1373 25.2453 65.1373 24.1472V19.2874C65.1373 19.2173 65.1373 19.1238 65.1603 19.0538C64.4955 19.1939 63.9225 19.7313 63.7849 20.6425H63.6245C63.8079 18.5164 65.7562 17.4182 67.3608 17.4182C68.4381 17.4182 69.1945 17.9089 69.1945 19.6379V24.1472C69.1945 25.2453 69.928 26.0631 71.0054 26.0631C72.0827 26.0631 72.7933 25.2453 72.7933 24.1472V19.007C72.7933 15.5491 70.6386 14.1472 68.3006 14.1472Z" fill="url(#paint3_linear)"/>
<path d="M84.9246 9.54439C83.8702 9.54439 83.1367 10.3622 83.1367 11.4603V16.8341L82.9762 16.6472C82.9762 16.0631 82.6553 15.5257 82.3115 15.0584C81.8759 14.521 81.1654 14.1472 80.3172 14.1472C77.3832 14.1472 74.3346 16.4369 74.3346 20.1986C74.3346 23.9603 77.154 26.25 80.7298 26.25C83.9389 26.25 86.7125 23.9369 86.7125 20.7126V11.4603C86.7125 10.3622 85.979 9.54439 84.9246 9.54439ZM83.1596 20.3622C83.1596 21.8341 82.2198 22.979 80.6611 22.979C78.919 22.979 77.9563 21.6939 77.9563 20.1752C77.9563 19.4743 78.2084 18.8435 78.5752 18.4229C77.8875 18.2827 77.1311 18.5397 76.6956 19.2874L76.581 19.1939C77.1082 17.8855 78.7586 17.3715 80.088 17.3715C82.1739 17.3715 83.1596 18.5397 83.1596 20.1285V20.3622Z" fill="url(#paint4_linear)"/>
<path d="M94.1489 10.6192C91.2149 10.6192 89.129 12.465 89.129 15.1752C89.129 17.6986 90.9169 18.6566 93.1862 19.3341C95.3179 20.0117 97.9539 20.7594 98.2748 22.208H98.1373C97.9998 21.7407 97.4726 21.4369 97.06 21.3435C97.0829 21.4603 97.1058 21.5771 97.1058 21.6939C97.0829 22.6285 96.2348 23.6332 94.4698 23.6332C92.5902 23.6332 91.5816 22.5117 90.9627 21.9743C90.3667 21.4837 89.7937 21.2267 89.0373 21.9977C88.5559 22.5117 88.3496 23.1659 89.0144 23.9837C89.702 24.8014 91.5816 26.25 94.3781 26.25C97.7706 26.25 99.8106 24.1005 99.8106 21.5304C99.8106 18.5164 97.037 17.5351 95.0658 16.9743C93.0257 16.3668 91.7879 15.9696 91.7879 14.8481C91.7879 14.4509 91.9484 14.1238 92.2234 13.8668C91.7879 13.7967 91.2149 13.9136 90.9169 14.3108L90.8023 14.2407C91.2378 13.5865 92.3839 13.2126 93.6904 13.2126C95.7763 13.2126 96.6245 14.3108 96.8766 14.5444C97.5643 15.1986 98.1602 15.0351 98.7333 14.4509C99.3292 13.8201 99.4209 13.236 98.7562 12.4883C97.9998 11.6005 96.2806 10.6192 94.1489 10.6192Z" fill="url(#paint5_linear)"/>
<path d="M109.926 17.7921C110.453 18.3528 111.049 18.3295 111.668 17.7453C112.241 17.1612 112.378 16.4603 111.805 15.8762C110.774 14.8248 109.353 14.1939 107.588 14.1939C104.104 14.1939 101.605 16.7407 101.605 20.222C101.605 23.6799 104.104 26.25 107.588 26.25C109.33 26.25 110.751 25.6192 111.805 24.5444C112.424 23.9369 112.333 23.2126 111.783 22.6285C111.187 22.0444 110.522 22.0444 109.949 22.6285C109.33 23.2594 108.596 23.6799 107.588 23.6799C105.639 23.6799 104.31 22.1145 104.31 20.222C104.31 19.1706 104.723 18.2126 105.41 17.5818C104.768 17.4883 103.943 17.7453 103.485 18.4463L103.37 18.3762C104.035 17.1612 105.777 16.7407 107.129 16.7407C108.573 16.7407 109.307 17.1612 109.926 17.7921Z" fill="url(#paint6_linear)"/>
<path d="M120.93 14.264C120.724 14.2173 120.472 14.1706 120.151 14.1706C119.028 14.1706 117.377 14.8248 117.148 17.0444L117.034 17.1145V15.7126C117.011 14.8949 116.483 14.3575 115.727 14.3575C114.902 14.3575 114.375 14.965 114.375 15.8061V24.6145C114.375 25.4556 114.902 26.0631 115.727 26.0631C116.552 26.0631 117.079 25.4556 117.079 24.6145V21.5304C117.079 18.1893 118.317 16.7874 119.876 16.8108C120.082 16.8108 120.289 16.8341 120.472 16.8575C121.297 17.021 121.893 16.6238 122.031 15.8294C122.145 14.9883 121.733 14.4276 120.93 14.264Z" fill="url(#paint7_linear)"/>
<path d="M125.289 12.465C126.206 12.465 126.871 11.764 126.871 10.8294C126.871 9.89486 126.206 9.19393 125.289 9.19393C124.349 9.19393 123.685 9.89486 123.685 10.8294C123.685 11.764 124.349 12.465 125.289 12.465ZM125.289 14.3808C124.464 14.3808 123.937 14.9883 123.937 15.8061V24.6145C123.937 25.4556 124.464 26.0631 125.289 26.0631C126.091 26.0631 126.619 25.4556 126.619 24.6145V17.0911H125.243V16.9743C125.862 16.9743 126.619 16.4837 126.619 15.7827V15.7126C126.619 14.9883 126.091 14.3808 125.289 14.3808Z" fill="url(#paint8_linear)"/>
<path d="M135.562 14.1939C133.82 14.1939 132.192 15.1051 132.192 16.9276L132.055 17.021V11.0865C132.055 10.2453 131.528 9.63785 130.702 9.63785C129.877 9.63785 129.35 10.2453 129.35 11.0865V20.8061C129.35 23.5631 131.321 26.25 135.126 26.25C139.069 26.25 141.109 23.4696 141.109 20.1752C141.109 16.4837 138.588 14.1939 135.562 14.1939ZM135.654 23.6799C133.132 23.7033 132.055 22.1846 132.055 20.1752V20.0117C132.055 18.1192 133.293 16.6939 135.149 16.6939C137.075 16.6939 138.404 18.0491 138.404 20.222C138.404 21.0631 138.175 22.1612 137.442 22.8622C137.992 22.9556 138.817 22.6986 139.275 21.9977L139.413 22.0678C138.725 23.2827 136.983 23.6799 135.654 23.6799Z" fill="url(#paint9_linear)"/>
<path d="M149.463 14.1939C147.721 14.1939 146.093 15.1051 146.093 16.9276L145.956 17.021V11.0865C145.956 10.2453 145.429 9.63785 144.603 9.63785C143.778 9.63785 143.251 10.2453 143.251 11.0865V20.8061C143.251 23.5631 145.222 26.25 149.027 26.25C152.97 26.25 155.01 23.4696 155.01 20.1752C155.01 16.4837 152.489 14.1939 149.463 14.1939ZM149.555 23.6799C147.033 23.7033 145.956 22.1846 145.956 20.1752V20.0117C145.956 18.1192 147.194 16.6939 149.05 16.6939C150.976 16.6939 152.305 18.0491 152.305 20.222C152.305 21.0631 152.076 22.1612 151.342 22.8622C151.893 22.9556 152.718 22.6986 153.176 21.9977L153.314 22.0678C152.626 23.2827 150.884 23.6799 149.555 23.6799Z" fill="url(#paint10_linear)"/>
<path d="M158.596 9.63785C157.771 9.63785 157.244 10.2453 157.244 11.0865V24.6145C157.244 25.4556 157.771 26.0631 158.596 26.0631C159.398 26.0631 159.925 25.4556 159.925 24.6145V12.3715H158.55V12.2547C159.169 12.2547 159.925 11.7407 159.925 11.0631V10.993C159.925 10.2453 159.398 9.63785 158.596 9.63785Z" fill="url(#paint11_linear)"/>
<path d="M173.25 19.3575C173.25 16.25 170.935 14.1939 167.932 14.1939C164.654 14.1939 162.156 16.6706 162.156 20.2453C162.156 23.6332 164.471 26.25 168.207 26.25C169.651 26.25 170.935 25.8762 171.783 25.3855C172.54 24.9182 172.7 24.3108 172.333 23.6332C171.921 22.8855 171.348 22.8154 170.568 23.1425C169.858 23.4696 169.055 23.7734 168.139 23.7734C166.855 23.7734 165.869 23.1425 165.365 22.208C165.205 21.9276 164.884 21.4837 164.379 21.4837L164.356 21.3668H171.416C172.562 21.3668 173.25 20.5023 173.25 19.3575ZM164.998 19.0771C165.159 18.4229 165.48 17.8622 165.915 17.4182C165.319 17.3481 164.494 17.6052 164.013 18.3061L163.898 18.236C164.586 17.021 166.419 16.6005 167.543 16.6005C169.491 16.6005 170.66 17.8622 170.683 19.0771H164.998Z" fill="url(#paint12_linear)"/>
<defs>
<linearGradient id="paint0_linear" x1="0" y1="17.4508" x2="29.7243" y2="17.4508" gradientUnits="userSpaceOnUse">
<stop offset="0.1499" stop-color="#FF9800"/>
<stop offset="1" stop-color="#FFC107"/>
</linearGradient>
<linearGradient id="paint1_linear" x1="38.3571" y1="17.6259" x2="173.342" y2="17.6259" gradientUnits="userSpaceOnUse">
<stop stop-color="#000F4D"/>
<stop offset="1" stop-color="#404B7A"/>
</linearGradient>
<linearGradient id="paint2_linear" x1="38.3571" y1="17.6259" x2="173.342" y2="17.6259" gradientUnits="userSpaceOnUse">
<stop stop-color="#000F4D"/>
<stop offset="1" stop-color="#404B7A"/>
</linearGradient>
<linearGradient id="paint3_linear" x1="38.3571" y1="17.6259" x2="173.342" y2="17.6259" gradientUnits="userSpaceOnUse">
<stop stop-color="#000F4D"/>
<stop offset="1" stop-color="#404B7A"/>
</linearGradient>
<linearGradient id="paint4_linear" x1="38.3571" y1="17.6259" x2="173.342" y2="17.6259" gradientUnits="userSpaceOnUse">
<stop stop-color="#000F4D"/>
<stop offset="1" stop-color="#404B7A"/>
</linearGradient>
<linearGradient id="paint5_linear" x1="38.3571" y1="17.6259" x2="173.342" y2="17.6259" gradientUnits="userSpaceOnUse">
<stop stop-color="#000F4D"/>
<stop offset="1" stop-color="#404B7A"/>
</linearGradient>
<linearGradient id="paint6_linear" x1="38.3571" y1="17.6259" x2="173.342" y2="17.6259" gradientUnits="userSpaceOnUse">
<stop stop-color="#000F4D"/>
<stop offset="1" stop-color="#404B7A"/>
</linearGradient>
<linearGradient id="paint7_linear" x1="38.3571" y1="17.6259" x2="173.342" y2="17.6259" gradientUnits="userSpaceOnUse">
<stop stop-color="#000F4D"/>
<stop offset="1" stop-color="#404B7A"/>
</linearGradient>
<linearGradient id="paint8_linear" x1="38.3571" y1="17.6259" x2="173.342" y2="17.6259" gradientUnits="userSpaceOnUse">
<stop stop-color="#000F4D"/>
<stop offset="1" stop-color="#404B7A"/>
</linearGradient>
<linearGradient id="paint9_linear" x1="38.3571" y1="17.6259" x2="173.342" y2="17.6259" gradientUnits="userSpaceOnUse">
<stop stop-color="#000F4D"/>
<stop offset="1" stop-color="#404B7A"/>
</linearGradient>
<linearGradient id="paint10_linear" x1="38.3571" y1="17.6259" x2="173.342" y2="17.6259" gradientUnits="userSpaceOnUse">
<stop stop-color="#000F4D"/>
<stop offset="1" stop-color="#404B7A"/>
</linearGradient>
<linearGradient id="paint11_linear" x1="38.3571" y1="17.6259" x2="173.342" y2="17.6259" gradientUnits="userSpaceOnUse">
<stop stop-color="#000F4D"/>
<stop offset="1" stop-color="#404B7A"/>
</linearGradient>
<linearGradient id="paint12_linear" x1="38.3571" y1="17.6259" x2="173.342" y2="17.6259" gradientUnits="userSpaceOnUse">
<stop stop-color="#000F4D"/>
<stop offset="1" stop-color="#404B7A"/>
</linearGradient>
</defs>
</svg>
