<svg width="200" height="41" viewBox="0 0 200 41" fill="none" xmlns="http://www.w3.org/2000/svg">
<path fill-rule="evenodd" clip-rule="evenodd" d="M9.87297 7.41284C9.54129 7.50936 9.18525 7.48928 8.86726 7.35613C8.66892 7.27285 8.49189 7.14807 8.34879 6.99068C8.2057 6.83328 8.10004 6.64715 8.03935 6.44553C7.97867 6.24391 7.96444 6.03176 7.99768 5.82418C8.03092 5.6166 8.11082 5.4187 8.23168 5.24457C10.4562 2.04289 13.8107 0 17.5535 0C21.1861 0 24.4566 1.92272 26.6812 4.9699C26.8079 5.14349 26.8934 5.34228 26.9315 5.55191C26.9696 5.76155 26.9594 5.97679 26.9015 6.18211C26.8437 6.38742 26.7397 6.57769 26.597 6.73915C26.4543 6.90062 26.2765 7.02926 26.0765 7.11579C25.7633 7.24523 25.4138 7.26598 25.0867 7.17455C24.7596 7.08312 24.4748 6.88508 24.2801 6.61365C22.6029 4.32184 20.2018 2.87979 17.5535 2.87979C14.8214 2.87979 12.363 4.41196 10.6813 6.82824C10.4908 7.10936 10.2047 7.31631 9.87297 7.41284ZM31.9148 22.1696C31.5848 22.3653 31.1891 22.4276 30.8124 22.3431L30.7727 22.3174C30.3956 22.2277 30.0699 21.9974 29.8659 21.6762C29.6619 21.355 29.5961 20.9687 29.6825 20.6007C30.3689 17.8349 30.8527 15.0253 31.1302 12.193C31.1563 11.9434 31.1147 11.6914 31.0096 11.4623C30.9045 11.2331 30.7396 11.0346 30.5311 10.8866C30.3227 10.7387 30.0781 10.6463 29.8216 10.6187C29.5651 10.5912 29.3056 10.6294 29.069 10.7295L17.7742 15.4891C17.5883 15.5677 17.3877 15.6082 17.185 15.6082C16.9822 15.6082 16.7817 15.5677 16.5957 15.4891L5.29651 10.7295C5.06045 10.6306 4.80196 10.5933 4.54652 10.6211C4.29109 10.649 4.04754 10.7411 3.83989 10.8885C3.63225 11.0358 3.46769 11.2332 3.36243 11.4612C3.25718 11.6892 3.21488 11.94 3.2397 12.1887C3.41183 13.9055 3.70314 15.9784 4.14452 18.1973C4.20015 18.4668 4.33408 18.7151 4.53043 18.9129C4.72678 19.1107 4.97732 19.2496 5.25237 19.3131L29.7266 25.0727C29.9331 25.1213 30.1265 25.2126 30.2935 25.3402C30.4606 25.4678 30.5976 25.6288 30.6951 25.8123C30.7926 25.9959 30.8484 26.1976 30.8588 26.404C30.8691 26.6103 30.8337 26.8164 30.7551 27.0083C28.3407 32.9353 24.3198 38.3987 17.6241 40.3429C17.3464 40.4244 17.05 40.4244 16.7723 40.3429C10.1516 38.3987 6.14395 33.0469 3.7208 27.2143C3.6194 26.9688 3.5894 26.701 3.63408 26.44C3.67877 26.1791 3.79641 25.9351 3.97413 25.7348C4.15186 25.5345 4.38282 25.3856 4.64175 25.3044C4.90067 25.2232 5.17758 25.2128 5.44216 25.2744H5.48189C5.71091 25.327 5.92353 25.4325 6.10177 25.5819C6.28001 25.7313 6.41862 25.9203 6.50588 26.1328C8.52738 31.0126 11.7009 35.4288 16.6884 37.2614C17.0087 37.3771 17.3612 37.3771 17.6815 37.2614C21.6274 35.8022 24.4655 32.7207 26.4825 29.0641C26.5858 28.8692 26.6419 28.654 26.6465 28.4349C26.6511 28.2158 26.6041 27.9985 26.5091 27.7997C26.4142 27.6009 26.2737 27.4259 26.0985 27.288C25.9233 27.1501 25.718 27.0529 25.4983 27.004L2.70563 21.6822C2.43747 21.6184 2.19276 21.4836 1.99872 21.2927C1.80469 21.1017 1.66895 20.8622 1.60661 20.6007C0.592069 16.3129 0.0534524 11.9316 0 7.53215C0.000755052 7.2938 0.0624409 7.05937 0.179507 6.84995C0.296574 6.64053 0.465348 6.4627 0.670644 6.33246C0.875939 6.20221 1.11132 6.12364 1.35559 6.10381C1.59987 6.08398 1.84539 6.12352 2.07005 6.21886L16.5957 12.3475C16.7817 12.4261 16.9822 12.4666 17.185 12.4666C17.3877 12.4666 17.5883 12.4261 17.7742 12.3475L32.2734 6.21886C32.4981 6.12352 32.7436 6.08398 32.9878 6.10381C33.2321 6.12364 33.4675 6.20221 33.6728 6.33246C33.8781 6.4627 34.0469 6.64053 34.1639 6.84995C34.281 7.05937 34.3427 7.2938 34.3434 7.53215C34.2908 12.1702 33.6986 16.7875 32.5779 21.2959C32.4828 21.6602 32.2448 21.9738 31.9148 22.1696Z" fill="url(#paint0_linear)"/>
<path d="M62.492 27.471L61.0102 14.3357C60.825 13.0141 59.9517 12.3398 58.8668 12.3398C57.9936 12.3398 57.385 12.7983 56.9352 13.7153L53.4688 20.9708L49.9759 13.7153C49.5261 12.7983 48.9174 12.3398 48.0442 12.3398C47.0122 12.3398 46.139 12.9871 45.9538 14.3627L44.472 27.471C44.3132 28.7927 44.8424 29.8446 46.0332 30.0334C47.3033 30.2761 48.4147 29.4939 48.5735 28.1453L49.1027 23.1285C49.2614 21.3484 48.891 20.1616 48.3618 18.6782L48.4676 18.3006L51.5106 25.8257C51.8282 26.7158 52.5162 27.2283 53.4688 27.2283C54.3684 27.2283 55.0829 26.7158 55.4004 25.8257L58.4435 18.3006L58.5758 18.6782C58.0201 20.1616 57.7025 21.3484 57.8613 23.1016L58.3905 28.1453C58.5493 29.4939 59.6342 30.2761 60.9043 30.0334C62.0951 29.8176 62.6508 28.7927 62.492 27.471Z" fill="url(#paint1_linear)"/>
<path d="M66.6729 14.9021C68.0224 14.9021 69.0279 13.8772 69.0279 12.5016C69.0279 11.126 68.0224 10.1011 66.6729 10.1011C65.3234 10.1011 64.2914 11.126 64.2914 12.5016C64.2914 13.8772 65.3234 14.9021 66.6729 14.9021ZM66.6729 16.5474C65.4557 16.5474 64.5824 17.4644 64.5824 18.7321V27.9026C64.5824 29.1703 65.4557 30.0873 66.6729 30.0873C67.8901 30.0873 68.7368 29.1703 68.7368 27.9026V20.755H66.62V20.5662C67.7842 20.5662 68.7368 19.9728 68.7368 18.9479V18.6782C68.7368 17.4644 67.8901 16.5474 66.6729 16.5474Z" fill="url(#paint2_linear)"/>
<path d="M78.8462 16.3316C77.1263 16.3316 75.8297 17.0868 75.0623 17.9769H74.9035V17.9499C74.6918 17.0059 73.9245 16.5474 73.1306 16.5474C71.887 16.5474 71.0402 17.4914 71.0402 18.7591V27.8756C71.0402 29.1433 71.8605 30.0873 73.1042 30.0873C74.3478 30.0873 75.1946 29.1433 75.1946 27.8756V22.2654C75.1946 22.1845 75.1946 22.0766 75.2211 21.9957C74.4537 22.1576 73.7922 22.7779 73.6334 23.8298H73.4482C73.6599 21.3754 75.909 20.1077 77.7613 20.1077C79.005 20.1077 79.8782 20.6741 79.8782 22.67V27.8756C79.8782 29.1433 80.725 30.0873 81.9687 30.0873C83.2123 30.0873 84.0326 29.1433 84.0326 27.8756V21.9418C84.0326 17.9499 81.5453 16.3316 78.8462 16.3316Z" fill="url(#paint3_linear)"/>
<path d="M98.037 11.0181C96.8198 11.0181 95.973 11.9621 95.973 13.2298V19.4334L95.7878 19.2176C95.7878 18.5433 95.4173 17.923 95.0204 17.3835C94.5176 16.7632 93.6973 16.3316 92.7183 16.3316C89.3313 16.3316 85.8119 18.9749 85.8119 23.3173C85.8119 27.6598 89.0667 30.3031 93.1946 30.3031C96.8992 30.3031 100.101 27.6329 100.101 23.9107V13.2298C100.101 11.9621 99.2542 11.0181 98.037 11.0181ZM95.9995 23.5062C95.9995 25.2054 94.9146 26.527 93.1152 26.527C91.1042 26.527 89.9928 25.0436 89.9928 23.2904C89.9928 22.4812 90.2839 21.753 90.7072 21.2675C89.9134 21.1056 89.0402 21.4023 88.5374 22.2654L88.4051 22.1576C89.0137 20.6471 90.9189 20.0537 92.4537 20.0537C94.8616 20.0537 95.9995 21.4023 95.9995 23.2364V23.5062Z" fill="url(#paint4_linear)"/>
<path d="M108.686 12.2588C105.298 12.2588 102.891 14.3896 102.891 17.5184C102.891 20.4313 104.954 21.5372 107.574 22.3194C110.035 23.1016 113.078 23.9647 113.449 25.6369H113.29C113.131 25.0975 112.522 24.7469 112.046 24.639C112.073 24.7738 112.099 24.9087 112.099 25.0436C112.073 26.1224 111.093 27.2822 109.056 27.2822C106.886 27.2822 105.722 25.9876 105.007 25.3672C104.319 24.8008 103.658 24.5041 102.785 25.3942C102.229 25.9876 101.991 26.7428 102.758 27.6868C103.552 28.6308 105.722 30.3031 108.95 30.3031C112.866 30.3031 115.221 27.8217 115.221 24.8548C115.221 21.3754 112.02 20.2425 109.744 19.5952C107.389 18.8939 105.96 18.4354 105.96 17.1408C105.96 16.6822 106.145 16.3046 106.463 16.0079C105.96 15.927 105.298 16.0619 104.954 16.5204L104.822 16.4395C105.325 15.6843 106.648 15.2527 108.156 15.2527C110.564 15.2527 111.543 16.5204 111.834 16.7901C112.628 17.5453 113.316 17.3565 113.978 16.6822C114.666 15.954 114.772 15.2797 114.004 14.4166C113.131 13.3917 111.146 12.2588 108.686 12.2588Z" fill="url(#paint5_linear)"/>
<path d="M126.898 20.5392C127.507 21.1866 128.195 21.1596 128.909 20.4853C129.571 19.811 129.73 19.0018 129.068 18.3275C127.877 17.1138 126.237 16.3855 124.199 16.3855C120.177 16.3855 117.293 19.3255 117.293 23.3443C117.293 27.3362 120.177 30.3031 124.199 30.3031C126.21 30.3031 127.851 29.5749 129.068 28.3341C129.783 27.6329 129.677 26.7967 129.042 26.1224C128.354 25.4481 127.586 25.4481 126.925 26.1224C126.21 26.8507 125.364 27.3362 124.199 27.3362C121.95 27.3362 120.415 25.5291 120.415 23.3443C120.415 22.1306 120.892 21.0247 121.686 20.2965C120.945 20.1886 119.992 20.4853 119.463 21.2945L119.331 21.2135C120.098 19.811 122.109 19.3255 123.67 19.3255C125.337 19.3255 126.184 19.811 126.898 20.5392Z" fill="url(#paint6_linear)"/>
<path d="M139.602 16.4665C139.364 16.4125 139.073 16.3586 138.702 16.3586C137.406 16.3586 135.501 17.1138 135.236 19.6761L135.104 19.757V18.1387C135.077 17.1947 134.469 16.5744 133.595 16.5744C132.643 16.5744 132.034 17.2756 132.034 18.2466V28.4151C132.034 29.386 132.643 30.0873 133.595 30.0873C134.548 30.0873 135.157 29.386 135.157 28.4151V24.8548C135.157 20.9978 136.585 19.3794 138.385 19.4064C138.623 19.4064 138.861 19.4334 139.073 19.4604C140.025 19.6492 140.713 19.1906 140.872 18.2736C141.004 17.3026 140.528 16.6553 139.602 16.4665Z" fill="url(#paint7_linear)"/>
<path d="M144.634 14.3896C145.692 14.3896 146.46 13.5805 146.46 12.5016C146.46 11.4227 145.692 10.6135 144.634 10.6135C143.549 10.6135 142.782 11.4227 142.782 12.5016C142.782 13.5805 143.549 14.3896 144.634 14.3896ZM144.634 16.6013C143.681 16.6013 143.073 17.3026 143.073 18.2466V28.4151C143.073 29.386 143.681 30.0873 144.634 30.0873C145.56 30.0873 146.169 29.386 146.169 28.4151V19.7301H144.581V19.5952C145.295 19.5952 146.169 19.0288 146.169 18.2196V18.1387C146.169 17.3026 145.56 16.6013 144.634 16.6013Z" fill="url(#paint8_linear)"/>
<path d="M156.493 16.3855C154.482 16.3855 152.603 17.4375 152.603 19.5413L152.444 19.6492V12.7983C152.444 11.8273 151.836 11.126 150.883 11.126C149.93 11.126 149.322 11.8273 149.322 12.7983V24.0186C149.322 27.2013 151.597 30.3031 155.99 30.3031C160.541 30.3031 162.896 27.0934 162.896 23.2904C162.896 19.0288 159.986 16.3855 156.493 16.3855ZM156.599 27.3362C153.688 27.3631 152.444 25.61 152.444 23.2904V23.1016C152.444 20.9168 153.873 19.2716 156.016 19.2716C158.239 19.2716 159.774 20.8359 159.774 23.3443C159.774 24.3153 159.509 25.583 158.663 26.3922C159.298 26.5 160.25 26.2034 160.779 25.3942L160.938 25.4751C160.144 26.8777 158.133 27.3362 156.599 27.3362Z" fill="url(#paint9_linear)"/>
<path d="M172.54 16.3855C170.529 16.3855 168.65 17.4375 168.65 19.5413L168.491 19.6492V12.7983C168.491 11.8273 167.883 11.126 166.93 11.126C165.978 11.126 165.369 11.8273 165.369 12.7983V24.0186C165.369 27.2013 167.645 30.3031 172.037 30.3031C176.589 30.3031 178.944 27.0934 178.944 23.2904C178.944 19.0288 176.033 16.3855 172.54 16.3855ZM172.646 27.3362C169.735 27.3631 168.491 25.61 168.491 23.2904V23.1016C168.491 20.9168 169.92 19.2716 172.064 19.2716C174.286 19.2716 175.821 20.8359 175.821 23.3443C175.821 24.3153 175.557 25.583 174.71 26.3922C175.345 26.5 176.297 26.2034 176.827 25.3942L176.985 25.4751C176.192 26.8777 174.181 27.3362 172.646 27.3362Z" fill="url(#paint10_linear)"/>
<path d="M183.083 11.126C182.131 11.126 181.522 11.8273 181.522 12.7983V28.4151C181.522 29.386 182.131 30.0873 183.083 30.0873C184.009 30.0873 184.618 29.386 184.618 28.4151V14.2817H183.03V14.1469C183.745 14.1469 184.618 13.5535 184.618 12.7713V12.6904C184.618 11.8273 184.009 11.126 183.083 11.126Z" fill="url(#paint11_linear)"/>
<path d="M200 22.3464C200 18.7591 197.327 16.3855 193.861 16.3855C190.077 16.3855 187.193 19.2446 187.193 23.3713C187.193 27.2822 189.865 30.3031 194.179 30.3031C195.846 30.3031 197.327 29.8715 198.306 29.3051C199.18 28.7657 199.365 28.0644 198.942 27.2822C198.465 26.4191 197.804 26.3382 196.904 26.7158C196.084 27.0934 195.158 27.4441 194.099 27.4441C192.617 27.4441 191.48 26.7158 190.897 25.6369C190.712 25.3133 190.342 24.8008 189.76 24.8008L189.733 24.6659H197.883C199.206 24.6659 200 23.668 200 22.3464ZM190.474 22.0227C190.659 21.2675 191.03 20.6202 191.532 20.1077C190.844 20.0268 189.892 20.3235 189.336 21.1326L189.204 21.0517C189.998 19.6492 192.115 19.1637 193.411 19.1637C195.66 19.1637 197.01 20.6202 197.036 22.0227H190.474Z" fill="url(#paint12_linear)"/>
<defs>
<linearGradient id="paint0_linear" x1="7.98019" y1="3.72599" x2="26.9377" y2="3.72599" gradientUnits="userSpaceOnUse">
<stop offset="0.1499" stop-color="#FF9800"/>
<stop offset="1" stop-color="#FFC107"/>
</linearGradient>
<linearGradient id="paint1_linear" x1="44.2795" y1="20.3474" x2="200.106" y2="20.3475" gradientUnits="userSpaceOnUse">
<stop stop-color="white"/>
<stop offset="1" stop-color="#F8F8F8"/>
</linearGradient>
<linearGradient id="paint2_linear" x1="44.2795" y1="20.3474" x2="200.106" y2="20.3475" gradientUnits="userSpaceOnUse">
<stop stop-color="white"/>
<stop offset="1" stop-color="#F8F8F8"/>
</linearGradient>
<linearGradient id="paint3_linear" x1="44.2795" y1="20.3474" x2="200.106" y2="20.3475" gradientUnits="userSpaceOnUse">
<stop stop-color="white"/>
<stop offset="1" stop-color="#F8F8F8"/>
</linearGradient>
<linearGradient id="paint4_linear" x1="44.2795" y1="20.3474" x2="200.106" y2="20.3475" gradientUnits="userSpaceOnUse">
<stop stop-color="white"/>
<stop offset="1" stop-color="#F8F8F8"/>
</linearGradient>
<linearGradient id="paint5_linear" x1="44.2795" y1="20.3474" x2="200.106" y2="20.3475" gradientUnits="userSpaceOnUse">
<stop stop-color="white"/>
<stop offset="1" stop-color="#F8F8F8"/>
</linearGradient>
<linearGradient id="paint6_linear" x1="44.2795" y1="20.3474" x2="200.106" y2="20.3475" gradientUnits="userSpaceOnUse">
<stop stop-color="white"/>
<stop offset="1" stop-color="#F8F8F8"/>
</linearGradient>
<linearGradient id="paint7_linear" x1="44.2795" y1="20.3474" x2="200.106" y2="20.3475" gradientUnits="userSpaceOnUse">
<stop stop-color="white"/>
<stop offset="1" stop-color="#F8F8F8"/>
</linearGradient>
<linearGradient id="paint8_linear" x1="44.2795" y1="20.3474" x2="200.106" y2="20.3475" gradientUnits="userSpaceOnUse">
<stop stop-color="white"/>
<stop offset="1" stop-color="#F8F8F8"/>
</linearGradient>
<linearGradient id="paint9_linear" x1="44.2795" y1="20.3474" x2="200.106" y2="20.3475" gradientUnits="userSpaceOnUse">
<stop stop-color="white"/>
<stop offset="1" stop-color="#F8F8F8"/>
</linearGradient>
<linearGradient id="paint10_linear" x1="44.2795" y1="20.3474" x2="200.106" y2="20.3475" gradientUnits="userSpaceOnUse">
<stop stop-color="white"/>
<stop offset="1" stop-color="#F8F8F8"/>
</linearGradient>
<linearGradient id="paint11_linear" x1="44.2795" y1="20.3474" x2="200.106" y2="20.3475" gradientUnits="userSpaceOnUse">
<stop stop-color="white"/>
<stop offset="1" stop-color="#F8F8F8"/>
</linearGradient>
<linearGradient id="paint12_linear" x1="44.2795" y1="20.3474" x2="200.106" y2="20.3475" gradientUnits="userSpaceOnUse">
<stop stop-color="white"/>
<stop offset="1" stop-color="#F8F8F8"/>
</linearGradient>
</defs>
</svg>
