<svg width="24" height="24" viewBox="0 0 24 24" fill="none" xmlns="http://www.w3.org/2000/svg">
<path d="M18.9414 15.8867C19.4688 16.4492 19.75 17.0469 19.75 17.6797C19.75 18.3125 19.5039 18.875 19.0469 19.332C18.5898 19.7891 18.0273 20 17.3945 20H14.125C14.125 20.6328 13.8789 21.1953 13.457 21.6172C13.0352 22.0391 12.5078 22.25 11.875 22.25C11.2422 22.25 10.6797 22.0391 10.2578 21.6172C9.83594 21.1953 9.625 20.6328 9.625 20H6.35547C5.6875 20 5.125 19.7891 4.66797 19.332C4.21094 18.875 4 18.3125 4 17.6797C4 17.0469 4.24609 16.4492 4.80859 15.8867C5.05469 15.6406 5.23047 15.4297 5.37109 15.2188C5.58203 14.9023 5.72266 14.5156 5.82812 14.0234C5.93359 13.4609 6.00391 12.7227 6.00391 11.8086C6.00391 10.8594 6.21484 9.98047 6.63672 9.13672C7.05859 8.29297 7.65625 7.625 8.42969 7.0625C9.16797 6.5 10.0117 6.14844 10.9609 6.00781C10.8203 5.83203 10.75 5.62109 10.75 5.375C10.75 5.09375 10.8555 4.8125 11.0664 4.60156C11.2773 4.39062 11.5586 4.25 11.875 4.25C12.1562 4.25 12.4375 4.39062 12.6484 4.60156C12.8594 4.8125 13 5.09375 13 5.375C13 5.62109 12.9297 5.83203 12.7891 6.00781C13.7031 6.14844 14.5469 6.5 15.3203 7.0625C16.0586 7.625 16.6562 8.29297 17.0781 9.13672C17.5 9.98047 17.7461 10.8594 17.7461 11.8086C17.7461 12.7227 17.7812 13.4609 17.9219 14.0234C17.9922 14.5156 18.168 14.9023 18.3789 15.2188C18.4844 15.4297 18.6602 15.6406 18.9414 15.8867ZM11.875 20.8438C12.0859 20.8438 12.2969 20.7734 12.4727 20.5977C12.6133 20.457 12.7188 20.2461 12.7188 20H11.0312C11.0312 20.2461 11.1016 20.457 11.2773 20.5977C11.418 20.7734 11.6289 20.8438 11.875 20.8438ZM17.3945 18.3125C17.6758 18.3125 17.8867 18.207 17.9922 17.9258C18.0977 17.6445 18.0625 17.3984 17.8516 17.1875C17.4297 16.7656 17.1484 16.4141 16.9375 16.0977C16.6562 15.6758 16.4453 15.1484 16.3047 14.5156C16.1289 13.8125 16.0586 12.8984 16.0586 11.8086C16.0586 11.0703 15.8477 10.3672 15.4961 9.73438C15.1094 9.10156 14.582 8.57422 13.9492 8.1875C13.3164 7.83594 12.6133 7.625 11.875 7.625C11.1016 7.625 10.3984 7.83594 9.76562 8.1875C9.13281 8.57422 8.60547 9.10156 8.25391 9.73438C7.86719 10.3672 7.69141 11.0703 7.69141 11.8086C7.69141 12.8984 7.58594 13.7773 7.44531 14.4805C7.30469 15.1133 7.09375 15.6758 6.8125 16.0977C6.60156 16.4141 6.28516 16.7656 5.89844 17.1875C5.6875 17.3984 5.61719 17.6445 5.72266 17.9258C5.82812 18.207 6.03906 18.3125 6.35547 18.3125H17.3945Z" fill="#666F94"/>
<circle cx="15" cy="7" r="4.25" fill="#FF9800" stroke="#F2F4FA" stroke-width="1.5"/>
<rect width="24" height="24" fill="#C4C4C4" fill-opacity="0.01"/>
</svg>
