<svg width="450" height="351" viewBox="0 0 450 351" fill="none" xmlns="http://www.w3.org/2000/svg">
<g clip-path="url(#clip0)">
<rect width="450" height="351" fill="white"/>
<path opacity="0.1" d="M158.614 56.0919C176.042 40.8985 203.402 37.8048 228.304 39.0139C306.521 42.8133 377.127 79.7145 438.201 121.456C460.31 136.568 482.077 152.867 496.442 173.663C525.661 216.025 516.991 274.711 476.369 309.607C462.547 321.483 467.68 347.708 450.479 355.78C419.895 370.126 365.012 364.516 330.294 367.795C305.539 370.131 280.499 368.225 255.869 364.972C187.113 355.859 119.623 335.713 63.0535 301.23C38.2319 286.109 14.8463 267.31 4.62067 242.836C-5.60496 218.361 0.939448 187.376 26.2723 172.897C36.7514 166.907 49.2755 164.205 61.5419 161.662C79.5968 157.927 97.9362 154.24 114.231 146.641C131.058 138.793 150.981 123.612 147.651 106.237C144.076 87.6102 141.208 71.2379 158.614 56.0919Z" fill="#7F87A6"/>
<path d="M149.667 231.464C149.667 231.464 154.277 228.267 159.048 230.242C159.048 230.242 157.714 232.987 151.77 232.953L149.667 231.464Z" fill="#7F87A6"/>
<path d="M149.094 231.648C149.094 231.648 147.862 237.006 151.615 240.482C151.615 240.482 153.695 238.215 151.33 232.939L149.094 231.648Z" fill="#7F87A6"/>
<path d="M142.998 226.774C142.998 226.774 143.167 222.252 153.748 223.358C153.748 223.358 153.913 226.266 150.276 227.781C146.639 229.296 144.896 228.207 142.998 226.774Z" fill="#7F87A6"/>
<path d="M142.344 226.766C142.344 226.766 137.947 228.315 142.295 237.721C142.295 237.721 145.203 236.976 145.572 233.16C145.941 229.343 144.332 228.082 142.344 226.766Z" fill="#7F87A6"/>
<path d="M136.134 220.591C136.134 220.591 135.245 213.19 146.022 213.552C146.022 213.552 147.049 220.243 138.104 222.304L136.134 220.591Z" fill="#7F87A6"/>
<path d="M128.695 212.473C128.695 212.473 129.838 204.009 140.699 206.113C140.699 206.113 141.028 213.385 130.545 214.414L128.695 212.473Z" fill="#7F87A6"/>
<path d="M123.161 204.004C123.161 204.004 125.304 195.704 136.054 197.778C136.054 197.778 133.831 205.243 123.93 205.493L123.161 204.004Z" fill="#7F87A6"/>
<path d="M117.892 195.729C117.892 195.729 119.969 187.123 130.341 189.309C130.341 189.309 127.229 197.514 118.617 197.153L117.892 195.729Z" fill="#7F87A6"/>
<path d="M114.393 187.812C114.393 187.812 115.838 177.343 125.507 179.288C125.507 179.288 123.098 188.853 115.148 189.296L114.393 187.812Z" fill="#7F87A6"/>
<path d="M111.027 178.211C111.027 178.211 112.837 167.648 122.653 170.337C122.653 170.337 119.239 180.384 111.761 179.635L111.027 178.211Z" fill="#7F87A6"/>
<path d="M108.822 169.255C108.822 169.255 111.935 158.644 119.457 158.648C119.457 158.648 116.278 169.836 109.534 171.333L108.822 169.255Z" fill="#7F87A6"/>
<path d="M107.302 160.471C107.302 160.471 110.65 147.709 116.794 148.457C116.794 148.457 114.513 158.199 107.596 162.429L107.302 160.471Z" fill="#7F87A6"/>
<path d="M106.222 149.963C106.222 149.963 109.41 139.317 115.42 138.672C115.42 138.672 113.375 149.106 106.462 152.691L106.222 149.963Z" fill="#7F87A6"/>
<path d="M105.101 140.185C105.101 140.185 109.183 129.493 113.157 129.105C113.157 129.105 111.615 139.54 105.568 141.898L105.101 140.185Z" fill="#7F87A6"/>
<path d="M104.244 131.074C104.244 131.074 106.556 119.538 110.495 118.445C110.495 118.445 110.321 127.813 104.675 131.913L104.244 131.074Z" fill="#7F87A6"/>
<path d="M102.273 119.18C102.273 119.18 104.82 109.963 107.986 108.453C107.986 108.453 107.772 119.21 103.095 121.362L102.273 119.18Z" fill="#7F87A6"/>
<path d="M100.718 111.377L99.4951 95.3359C99.4951 95.3359 105.986 107.238 101.273 114.195L100.718 111.377Z" fill="#7F87A6"/>
<path d="M95.4263 95.5841C95.4263 95.5841 90.6292 84.0137 89.5621 83.3984C89.5621 83.3984 98.3651 90.7133 97.9205 100.515L95.4263 95.5841Z" fill="#7F87A6"/>
<path d="M135.84 220.548C135.84 220.548 128.171 219.864 128.815 230.286C128.815 230.286 135.751 231.116 137.658 222.407L135.84 220.548Z" fill="#7F87A6"/>
<path d="M128.327 212.207C128.327 212.207 119.516 212.504 120.654 223.153C120.654 223.153 128.101 224.16 130.15 214.156L128.327 212.207Z" fill="#7F87A6"/>
<path d="M123.103 204.7C123.103 204.7 114.958 201.365 110.21 210.926C110.21 210.926 117.719 213.676 123.868 206.193L123.103 204.7Z" fill="#7F87A6"/>
<path d="M117.714 195.816C117.714 195.816 109.373 192.253 104.923 201.59C104.923 201.59 113.57 204.116 118.447 197.236L117.714 195.816Z" fill="#7F87A6"/>
<path d="M114.504 188.03C114.504 188.03 106.332 181.033 100.335 188.641C100.335 188.641 108.626 194.338 114.931 189.639L114.504 188.03Z" fill="#7F87A6"/>
<path d="M111.463 177.946C111.463 177.946 103.238 170.786 97.3027 178.806C97.3027 178.806 106.448 184.594 111.81 179.49L111.463 177.946Z" fill="#7F87A6"/>
<path d="M109.623 168.917C109.623 168.917 103.145 159.838 96.0316 162.179C96.0316 162.179 102.763 171.8 109.641 171.107L109.623 168.917Z" fill="#7F87A6"/>
<path d="M107.484 160.406C107.484 160.406 100.855 148.909 95.12 151.159C95.12 151.159 99.9127 160.006 107.715 162.368L107.484 160.406Z" fill="#7F87A6"/>
<path d="M106.617 149.346C106.617 149.346 99.9216 140.353 94.0397 141.7C94.0397 141.7 99.5837 150.865 107.337 151.997L106.617 149.346Z" fill="#7F87A6"/>
<path d="M105.763 139.956C105.763 139.956 100.45 129.784 96.4576 129.84C96.4576 129.84 99.2186 140.038 105.501 141.707L105.763 139.956Z" fill="#7F87A6"/>
<path d="M104.429 130.84C104.429 130.84 98.5608 120.556 94.4617 120.685C94.4617 120.685 97.6094 129.549 104.283 131.769L104.429 130.84Z" fill="#7F87A6"/>
<path d="M103.171 119.775C103.171 119.775 98.7475 111.247 95.333 110.391C95.333 110.391 97.7916 120.89 102.811 122.094L103.171 119.775Z" fill="#7F87A6"/>
<path d="M100.219 111.09L90.576 97.9922C90.576 97.9922 93.4348 111.168 101.651 113.603L100.219 111.09Z" fill="#7F87A6"/>
<path d="M93.3857 96.7398C93.3857 96.7398 82.5332 90.0574 82.0886 88.9258C82.0886 88.9258 87.8683 98.6416 97.9428 100.019L93.3857 96.7398Z" fill="#7F87A6"/>
<path d="M92.6257 93.5844C92.6257 93.5844 80.0171 82.7197 76.9138 82.8488C76.9138 82.8488 86.9616 82.9176 92.9192 92.9734L92.6257 93.5844Z" fill="#7F87A6"/>
<path d="M103.118 121.497L102.674 121.57C99.7038 104.337 95.9648 94.2295 92.1501 93.1022L92.2791 92.6719C96.316 93.8595 100.077 103.821 103.118 121.497Z" fill="#444053"/>
<path d="M108.12 162.75L107.453 162.828C107.249 161.219 107.071 159.566 106.933 157.923C105.728 143.616 104.217 130.492 102.527 120.673L102.896 120.195C104.59 130.032 106.395 143.543 107.605 157.871C107.742 159.506 107.916 161.146 108.12 162.75Z" fill="#444053"/>
<path d="M162.484 239.244C162.364 239.197 150.378 234.541 137.663 222.846C130.216 216 123.938 208.056 119.061 199.309C112.965 188.376 108.977 174.804 107.292 161.543L108.004 161.836C111.783 191.603 126.641 211.499 138.236 222.192C150.827 233.784 162.689 238.392 162.8 238.435L162.484 239.244Z" fill="#444053"/>
<g opacity="0.7">
<path opacity="0.7" d="M168.27 204.2C168.27 204.2 173.654 202.479 177.606 205.737C177.606 205.737 175.485 207.974 169.821 206.227L168.27 204.2Z" fill="#7F87A6"/>
<path opacity="0.7" d="M167.664 204.207C167.664 204.207 164.845 208.97 167.357 213.364C167.357 213.364 170.025 211.802 169.407 206.083L167.664 204.207Z" fill="#7F87A6"/>
<path opacity="0.7" d="M163.338 197.803C163.338 197.803 164.894 193.535 174.653 197.635C174.653 197.635 173.92 200.462 169.976 200.858C166.033 201.254 164.717 199.709 163.338 197.803Z" fill="#7F87A6"/>
<path opacity="0.7" d="M162.72 197.609C162.72 197.609 158.052 197.825 159.306 208.052C159.306 208.052 162.316 208.181 163.841 204.64C165.366 201.099 164.214 199.434 162.72 197.609Z" fill="#7F87A6"/>
<path opacity="0.7" d="M158.692 189.911C158.692 189.911 160.11 182.596 170.292 186.038C170.292 186.038 169.22 192.721 160.044 192.114L158.692 189.911Z" fill="#7F87A6"/>
<path opacity="0.7" d="M154.086 180.016C154.086 180.016 157.776 172.271 167.486 177.4C167.486 177.4 165.565 184.435 155.237 182.4L154.086 180.016Z" fill="#7F87A6"/>
<path opacity="0.7" d="M151.401 170.354C151.401 170.354 156.003 163.039 165.628 168.12C165.628 168.12 161.182 174.601 151.681 171.993L151.401 170.354Z" fill="#7F87A6"/>
<path opacity="0.7" d="M148.915 160.935C148.915 160.935 153.539 153.327 162.782 158.392C162.782 158.392 157.292 165.328 149.182 162.505L148.915 160.935Z" fill="#7F87A6"/>
<path opacity="0.7" d="M148.009 152.367C148.009 152.367 152.606 142.789 161.249 147.436C161.249 147.436 156.008 155.87 148.285 154.007L148.009 152.367Z" fill="#7F87A6"/>
<path opacity="0.7" d="M147.751 142.234C147.751 142.234 152.726 132.668 161.266 138.064C161.266 138.064 154.922 146.67 148.013 143.804L147.751 142.234Z" fill="#7F87A6"/>
<path opacity="0.7" d="M148.405 133.04C148.405 133.04 154.629 123.806 161.814 125.974C161.814 125.974 155.336 135.755 148.44 135.23L148.405 133.04Z" fill="#7F87A6"/>
<path opacity="0.7" d="M149.667 124.222C149.667 124.222 156.781 113.005 162.422 115.488C162.422 115.488 157.247 124.132 149.347 126.176L149.667 124.222Z" fill="#7F87A6"/>
<path opacity="0.7" d="M151.841 113.882C151.841 113.882 158.163 104.635 164.094 105.749C164.094 105.749 158.937 115.125 151.236 116.554L151.841 113.882Z" fill="#7F87A6"/>
<path opacity="0.7" d="M153.785 104.223C153.785 104.223 160.965 95.1869 164.877 95.97C164.877 95.97 160.196 105.488 153.7 105.991L153.785 104.223Z" fill="#7F87A6"/>
<path opacity="0.7" d="M155.762 95.2779C155.762 95.2779 161.515 84.951 165.615 85.0199C165.615 85.0199 162.565 93.9139 155.918 96.2073L155.762 95.2779Z" fill="#7F87A6"/>
<path opacity="0.7" d="M157.537 83.3557C157.537 83.3557 162.806 75.2922 166.291 74.75C166.291 74.75 162.779 84.965 157.657 85.6835L157.537 83.3557Z" fill="#7F87A6"/>
<path opacity="0.7" d="M158.453 75.4561L162.219 59.7852C162.219 59.7852 164.758 73.0164 158.115 78.2874L158.453 75.4561Z" fill="#7F87A6"/>
<path opacity="0.7" d="M158.265 58.8584C158.265 58.8584 157.238 46.4317 156.411 45.5195C156.411 45.5195 162.573 55.0202 159.132 64.2714L158.265 58.8584Z" fill="#7F87A6"/>
<path opacity="0.7" d="M158.421 189.793C158.421 189.793 151.308 186.936 148.725 197.074C148.725 197.074 155.087 199.862 159.586 192.095L158.421 189.793Z" fill="#7F87A6"/>
<path opacity="0.7" d="M153.811 179.671C153.811 179.671 145.306 177.421 143.118 187.916C143.118 187.916 149.921 191.022 154.953 182.06L153.811 179.671Z" fill="#7F87A6"/>
<path opacity="0.7" d="M151.135 170.999C151.135 170.999 144.386 165.47 136.908 173.232C136.908 173.232 143.23 178.021 151.406 172.638L151.135 170.999Z" fill="#7F87A6"/>
<path opacity="0.7" d="M148.726 160.966C148.726 160.966 141.852 155.166 134.739 162.795C134.739 162.795 142.217 167.7 148.988 162.537L148.726 160.966Z" fill="#7F87A6"/>
<path opacity="0.7" d="M148.054 152.613C148.054 152.613 142.398 143.577 134.333 149.11C134.333 149.11 140.5 156.941 147.965 154.274L148.054 152.613Z" fill="#7F87A6"/>
<path opacity="0.7" d="M148.249 142.106C148.249 142.106 142.593 132.902 134.466 138.857C134.466 138.857 141.42 147.033 148.102 143.689L148.249 142.106Z" fill="#7F87A6"/>
<path opacity="0.7" d="M149.263 132.955C149.263 132.955 145.87 122.426 138.361 122.628C138.361 122.628 141.829 133.755 148.609 135.072L149.263 132.955Z" fill="#7F87A6"/>
<path opacity="0.7" d="M149.836 124.215C149.836 124.215 147.044 111.328 140.877 111.827C140.877 111.827 142.736 121.654 149.458 126.159L149.836 124.215Z" fill="#7F87A6"/>
<path opacity="0.7" d="M152.416 113.409C152.416 113.409 148.788 102.893 142.755 102.484C142.755 102.484 145.231 112.833 152.287 116.146L152.416 113.409Z" fill="#7F87A6"/>
<path opacity="0.7" d="M154.487 104.192C154.487 104.192 152.539 92.9527 148.707 91.8555C148.707 91.8555 148.214 102.385 153.695 105.792L154.487 104.192Z" fill="#7F87A6"/>
<path opacity="0.7" d="M156.011 95.1112C156.011 95.1112 153.57 83.6011 149.618 82.5469C149.618 82.5469 149.898 91.9142 155.589 95.9545L156.011 95.1112Z" fill="#7F87A6"/>
<path opacity="0.7" d="M158.208 84.198C158.208 84.198 156.607 74.7834 153.611 72.9805C153.611 72.9805 152.722 83.7118 157.168 86.3193L158.208 84.198Z" fill="#7F87A6"/>
<path opacity="0.7" d="M158.066 75.0259L152.882 59.7422C152.882 59.7422 151.548 73.1412 158.662 77.8357L158.066 75.0259Z" fill="#7F87A6"/>
<path opacity="0.7" d="M155.953 59.3742C155.953 59.3742 147.626 49.8607 147.564 48.6602C147.564 48.6602 150.111 59.6023 159.288 63.8148L155.953 59.3742Z" fill="#7F87A6"/>
<path opacity="0.7" d="M156.199 56.1436C156.199 56.1436 147.498 42.1378 144.497 41.3633C144.497 41.3633 154.065 44.3279 156.644 55.6315L156.199 56.1436Z" fill="#7F87A6"/>
<path opacity="0.7" d="M157.639 85.7835L157.195 85.7233C159.653 68.4215 159.195 57.6902 155.897 55.5173L156.15 55.1602C159.649 57.4708 160.16 68.0601 157.639 85.7835Z" fill="#444053"/>
<path opacity="0.7" d="M149.724 126.657L149.062 126.541C149.364 124.944 149.702 123.318 150.076 121.704C153.326 107.699 155.918 94.7384 157.318 84.8763L157.82 84.5234C156.416 94.42 153.984 107.823 150.734 121.851C150.36 123.43 150.022 125.048 149.724 126.657Z" fill="#444053"/>
<path opacity="0.7" d="M178.121 215.318C178.024 215.241 168.011 207.345 159.448 192.513C154.444 183.834 150.894 174.442 148.929 164.686C146.471 152.492 146.831 138.387 149.303 125.242L149.89 125.724C144.355 155.233 152.424 178.511 160.222 192.061C168.669 206.751 178.575 214.565 178.677 214.643L178.121 215.318Z" fill="#444053"/>
</g>
<path opacity="0.1" d="M353.011 340.409L308.414 357.108L243.227 381.493C240.769 377.074 237.141 371.028 232.651 363.851C217.214 339.088 191.668 300.573 168.932 266.727C143.305 228.591 121.254 196.388 121.254 196.388L137.219 191.909L267.627 155.305L353.011 340.409Z" fill="black"/>
<path d="M353.9 337.393L309.303 354.093L244.117 378.477C241.658 374.058 238.03 368.012 233.54 360.835C218.104 336.072 192.558 297.558 169.821 263.711C144.195 225.575 122.143 193.373 122.143 193.373L138.108 188.893L268.516 152.289L353.9 337.393Z" fill="white"/>
<path opacity="0.1" d="M353.9 337.393L309.303 354.093C284.395 359.114 258.977 361.376 233.54 360.835C218.104 336.072 192.558 297.558 169.821 263.711L138.108 188.893L268.516 152.289L353.9 337.393Z" fill="black"/>
<path d="M387.08 327.008C387.08 327.008 317.795 366.672 214.356 357.722L131.884 163.152L171.404 156.581L308.018 133.875L385.533 323.248L387.08 327.008Z" fill="#7F87A6"/>
<path opacity="0.1" d="M385.532 323.248C369.215 324.022 350.347 323.949 331.354 321.759C310.805 319.427 290.158 314.599 272.419 305.761C257.605 298.373 244.938 290.348 233.89 280.714C205.165 255.706 187.386 219.932 171.421 156.581L308.035 133.875L385.532 323.248Z" fill="black"/>
<path d="M436.354 312.37C436.354 312.37 385.262 322.06 333.306 316.092C312.757 313.747 292.088 308.932 274.371 300.094C259.557 292.706 246.891 284.681 235.843 275.047C200.276 244.067 181.509 196.641 162.152 100.821C162.152 100.821 247.069 120.653 330.968 77.2109C330.968 77.2109 359.266 248.15 436.354 312.37Z" fill="white"/>
<path opacity="0.1" d="M333.306 316.092C312.757 313.747 292.088 308.932 274.371 300.094C259.557 292.706 246.89 284.681 235.842 275.047C266.115 272.668 270.467 256.648 270.467 256.648C292.91 291.123 333.306 316.092 333.306 316.092Z" fill="black"/>
<path opacity="0.3" d="M206.064 136C206.064 136 251.679 141.038 294.373 117.82L297.299 126.912C297.299 126.912 256.454 146.624 206.064 146.624V136Z" fill="#7F87A6"/>
<path opacity="0.3" d="M206.064 180.874C206.064 180.874 251.412 177.333 301.896 153.719L303.603 157.497C303.603 157.497 285.024 180.125 206.064 186.037V180.874Z" fill="black"/>
<path opacity="0.3" d="M211.439 198.378C211.439 198.378 256.788 194.836 307.271 171.227L308.978 175.004C308.978 175.004 290.403 197.655 211.439 203.571V198.378Z" fill="black"/>
<path opacity="0.3" d="M216.357 217.245C216.357 217.245 261.705 213.704 312.189 190.094L313.896 193.872C313.896 193.872 295.294 216.509 216.357 222.438V217.245Z" fill="black"/>
<path opacity="0.3" d="M222.194 233.417C222.194 233.417 267.542 229.875 318.026 206.266L319.733 210.044C319.733 210.044 301.158 232.685 222.194 238.614V233.417Z" fill="black"/>
<path opacity="0.1" d="M227.573 250.936C227.573 250.936 272.922 247.395 323.405 223.785L325.112 227.563C325.112 227.563 306.533 250.205 227.573 256.13V250.936Z" fill="black"/>
<path opacity="0.3" d="M322.076 141.936L309.386 146.117L313.706 158.398L326.395 154.217L322.076 141.936Z" fill="#7F87A6"/>
<path opacity="0.3" d="M329.295 160.206L316.605 164.387L320.925 176.668L333.615 172.487L329.295 160.206Z" fill="#7F87A6"/>
<path opacity="0.3" d="M340.867 195.362L328.178 199.543L332.497 211.824L345.187 207.643L340.867 195.362Z" fill="#7F87A6"/>
<path opacity="0.3" d="M347.508 214.229L334.818 218.41L339.138 230.691L351.828 226.51L347.508 214.229Z" fill="#7F87A6"/>
<path opacity="0.3" d="M335.18 179.186L322.491 183.367L326.811 195.648L339.5 191.467L335.18 179.186Z" fill="#7F87A6"/>
<path d="M349.031 217.596L384.599 204.74C385.015 204.589 385.457 204.518 385.901 204.533C386.345 204.548 386.782 204.647 387.186 204.826C387.591 205.004 387.955 205.257 388.257 205.572C388.56 205.887 388.796 206.256 388.951 206.659C389.107 207.062 389.178 207.49 389.163 207.92C389.147 208.35 389.044 208.772 388.859 209.163C388.675 209.554 388.412 209.907 388.087 210.2C387.762 210.493 387.38 210.721 386.964 210.871L351.397 223.732L343.776 222.992L349.031 217.596Z" fill="#5C5C8E"/>
<path opacity="0.1" d="M387.872 205.625C388.186 206.439 388.152 207.34 387.78 208.131C387.407 208.922 386.725 209.537 385.884 209.841L350.317 222.698L344.591 222.143L343.768 223.004L351.388 223.744L386.956 210.883C387.372 210.732 387.754 210.504 388.079 210.211C388.404 209.918 388.666 209.566 388.851 209.175C389.035 208.784 389.139 208.361 389.154 207.931C389.17 207.502 389.098 207.073 388.943 206.67C388.682 205.992 388.196 205.417 387.56 205.035C387.683 205.222 387.787 205.419 387.872 205.625Z" fill="white"/>
<path d="M349.031 217.594L351.401 223.73L345.146 223.123L343.776 222.99L345.648 221.07L349.031 217.594Z" fill="#EFC8C4"/>
<path d="M345.643 221.07C345.79 221.174 345.914 221.306 346.008 221.458C346.067 221.547 346.098 221.651 346.098 221.757C346.098 221.863 346.067 221.966 346.008 222.056C345.905 222.151 345.788 222.231 345.661 222.292C345.517 222.384 345.396 222.507 345.308 222.651C345.22 222.795 345.168 222.956 345.154 223.123L343.785 222.989L345.643 221.07Z" fill="#727A9C"/>
<path d="M317.986 151.111L311.988 148.279C311.903 148.239 311.826 148.183 311.763 148.114C311.7 148.045 311.652 147.964 311.621 147.877C311.59 147.79 311.577 147.698 311.583 147.606C311.589 147.514 311.613 147.424 311.655 147.341L312.291 146.076C312.332 145.993 312.39 145.919 312.461 145.857C312.532 145.796 312.615 145.749 312.706 145.719C312.796 145.689 312.891 145.677 312.986 145.683C313.082 145.688 313.175 145.713 313.26 145.754L317.301 147.66L321.52 139.286C321.605 139.119 321.754 138.991 321.936 138.93C322.117 138.869 322.316 138.879 322.49 138.959L323.797 139.579C323.883 139.619 323.96 139.675 324.023 139.744C324.086 139.813 324.135 139.893 324.166 139.981C324.197 140.068 324.21 140.16 324.204 140.252C324.198 140.344 324.173 140.434 324.13 140.517L318.955 150.788C318.913 150.871 318.855 150.945 318.784 151.006C318.713 151.067 318.63 151.114 318.54 151.144C318.45 151.174 318.354 151.186 318.259 151.18C318.164 151.175 318.072 151.151 317.986 151.111Z" fill="#3ACC6C"/>
<path d="M331.088 187.33L325.09 184.499C325.005 184.459 324.928 184.402 324.865 184.333C324.802 184.264 324.754 184.184 324.723 184.097C324.692 184.01 324.679 183.918 324.685 183.826C324.691 183.734 324.715 183.644 324.757 183.561L325.393 182.296C325.478 182.128 325.628 182 325.811 181.94C325.993 181.879 326.193 181.891 326.366 181.973L330.403 183.879L334.618 175.497C334.702 175.33 334.852 175.202 335.033 175.141C335.215 175.08 335.414 175.09 335.587 175.17L336.89 175.79C336.976 175.83 337.053 175.886 337.116 175.955C337.18 176.024 337.229 176.104 337.26 176.191C337.291 176.278 337.305 176.371 337.299 176.463C337.294 176.555 337.269 176.645 337.228 176.728L332.053 186.999C331.967 187.166 331.816 187.293 331.634 187.353C331.452 187.414 331.253 187.402 331.079 187.322L331.088 187.33Z" fill="#3ACC6C"/>
<path d="M325.206 169.477L319.208 166.646C319.036 166.564 318.903 166.42 318.84 166.244C318.777 166.068 318.788 165.876 318.87 165.708L319.511 164.443C319.552 164.36 319.61 164.285 319.681 164.224C319.752 164.162 319.835 164.115 319.926 164.085C320.016 164.055 320.111 164.043 320.206 164.049C320.301 164.055 320.394 164.079 320.48 164.12L324.521 166.026L328.74 157.64C328.782 157.557 328.84 157.483 328.912 157.422C328.983 157.361 329.066 157.314 329.156 157.284C329.246 157.254 329.341 157.242 329.436 157.247C329.531 157.253 329.624 157.277 329.71 157.317L331.017 157.932C331.189 158.016 331.32 158.161 331.383 158.338C331.445 158.514 331.434 158.707 331.35 158.875L326.171 169.154C326.129 169.237 326.071 169.311 325.999 169.372C325.928 169.433 325.845 169.48 325.755 169.51C325.665 169.54 325.57 169.552 325.475 169.547C325.38 169.541 325.287 169.517 325.201 169.477H325.206Z" fill="#3ACC6C"/>
<path d="M336.779 203.681L330.781 200.85C330.696 200.81 330.619 200.753 330.556 200.684C330.493 200.615 330.445 200.535 330.414 200.448C330.383 200.361 330.37 200.269 330.376 200.177C330.381 200.085 330.406 199.995 330.448 199.912L331.083 198.647C331.125 198.564 331.183 198.49 331.255 198.429C331.326 198.368 331.409 198.321 331.499 198.291C331.589 198.261 331.684 198.249 331.779 198.254C331.874 198.26 331.967 198.284 332.053 198.324L336.094 200.23L340.313 191.857C340.398 191.69 340.548 191.561 340.731 191.5C340.913 191.439 341.113 191.45 341.287 191.53L342.589 192.15C342.675 192.19 342.752 192.246 342.816 192.315C342.879 192.384 342.928 192.464 342.959 192.551C342.99 192.638 343.002 192.731 342.996 192.823C342.99 192.915 342.965 193.005 342.923 193.088L337.752 203.359C337.666 203.525 337.516 203.652 337.334 203.713C337.152 203.773 336.952 203.762 336.779 203.681Z" fill="#3ACC6C"/>
</g>
<defs>
<clipPath id="clip0">
<rect width="450" height="351" fill="white"/>
</clipPath>
</defs>
</svg>
