<svg width="181" height="21" viewBox="0 0 181 21" fill="none" xmlns="http://www.w3.org/2000/svg">
<path fill-rule="evenodd" clip-rule="evenodd" d="M87.4299 5.52064L86.5983 8.56322L91.3565 5.50354L88.2448 17.0469L91.4047 17.0498L96.0015 0L87.4299 5.52064ZM103.891 9.2135C104.345 8.93917 104.651 8.50951 104.808 7.92412C104.966 7.33904 104.892 6.90933 104.586 6.63474C104.279 6.36046 103.715 6.22329 102.894 6.22329H100.282L99.3647 9.62521H101.977C102.799 9.62521 103.436 9.48778 103.891 9.2135ZM107.1 5.01635C107.708 5.67473 107.846 6.61983 107.513 7.85081C107.28 8.71689 106.85 9.46044 106.223 10.082C105.595 10.7039 104.816 11.1494 103.885 11.4173C104.615 11.5757 105.03 12.1061 105.131 13.0083L105.623 17.0497H102.588L102.083 12.7155C102.039 12.3746 101.898 12.1367 101.658 12.0024C101.418 11.8682 101.09 11.8011 100.674 11.8011H98.8161L97.4012 17.0497H94.5684L98.0777 4.02895H103.909C105.429 4.02895 106.493 4.35796 107.1 5.01635ZM113.304 14.398C113.796 13.9349 114.161 13.264 114.397 12.3864C114.634 11.5085 114.631 10.8349 114.39 10.3657C114.149 9.8965 113.684 9.66142 112.998 9.66142C112.311 9.66142 111.712 9.90558 111.201 10.3927C110.689 10.8809 110.317 11.5575 110.084 12.4229C109.85 13.289 109.859 13.9501 110.11 14.4071C110.36 14.8645 110.835 15.0929 111.535 15.0929C112.221 15.0929 112.811 14.8615 113.304 14.398ZM115.284 9.0946L115.639 7.77783H118.38L115.881 17.0498H113.14L113.51 15.6783C113.1 16.1536 112.601 16.5258 112.014 16.7937C111.427 17.0619 110.808 17.196 110.158 17.196C109.349 17.196 108.687 17.0014 108.173 16.6109C107.659 16.2208 107.325 15.6631 107.171 14.9375C107.017 14.2122 107.068 13.3741 107.324 12.4229C107.581 11.472 107.984 10.6248 108.534 9.88097C109.084 9.13747 109.726 8.56147 110.462 8.15281C111.197 7.74441 111.963 7.54002 112.76 7.54002C113.41 7.54002 113.955 7.68054 114.395 7.96091C114.834 8.24128 115.131 8.61898 115.284 9.0946ZM128.235 7.77778H120.27L119.713 9.84445H124.348L118.22 15.1111L117.697 17.0497H125.919L126.477 14.9833H121.511L127.732 9.64311L128.235 7.77778ZM134.151 14.4166C134.634 13.9656 135 13.2823 135.246 12.3682C135.49 11.4659 135.491 10.7862 135.253 10.3292C135.014 9.87184 134.551 9.64316 133.865 9.64316C133.166 9.64316 132.571 9.87184 132.08 10.3292C131.589 10.7862 131.222 11.4659 130.979 12.3682C130.489 14.1851 130.962 15.0929 132.397 15.0929C133.083 15.0929 133.668 14.8675 134.151 14.4166ZM134.432 7.54002C135.413 7.54002 136.219 7.73522 136.849 8.1251C137.479 8.51556 137.895 9.07634 138.097 9.80767C138.299 10.5393 138.268 11.3926 138.005 12.3682C137.742 13.3437 137.312 14.1967 136.717 14.9284C136.121 15.66 135.403 16.2208 134.563 16.6109C133.722 17.0014 132.811 17.196 131.83 17.196C130.836 17.196 130.021 17.0014 129.385 16.6109C128.747 16.2208 128.329 15.66 128.128 14.9284C127.926 14.1967 127.956 13.3437 128.219 12.3682C128.482 11.3926 128.912 10.5393 129.508 9.80767C130.103 9.07634 130.824 8.51556 131.671 8.1251C132.518 7.73522 133.438 7.54002 134.432 7.54002ZM165.512 12.3864C165.276 13.264 164.911 13.9349 164.419 14.398C163.926 14.8615 163.335 15.0929 162.649 15.0929C161.95 15.0929 161.475 14.8645 161.225 14.4071C160.974 13.9501 160.965 13.289 161.199 12.4229C161.432 11.5575 161.804 10.8809 162.316 10.3927C162.827 9.90558 163.426 9.66142 164.113 9.66142C164.799 9.66142 165.264 9.8965 165.505 10.3657C165.746 10.8349 165.749 11.5085 165.512 12.3864ZM166.754 7.77783L166.399 9.0946C166.246 8.61898 165.949 8.24128 165.51 7.96091C165.07 7.68054 164.525 7.54002 163.875 7.54002C163.078 7.54002 162.312 7.74441 161.577 8.15281C160.841 8.56147 160.199 9.13747 159.649 9.88097C159.099 10.6248 158.696 11.472 158.439 12.4229C158.183 13.3741 158.132 14.2122 158.286 14.9375C158.44 15.6631 158.773 16.2208 159.288 16.6109C159.802 17.0014 160.464 17.196 161.273 17.196C161.923 17.196 162.542 17.0619 163.129 16.7937C163.716 16.5258 164.215 16.1536 164.625 15.6783L164.255 17.0498H166.996L169.495 7.77783H166.754ZM147.319 7.74137L146.621 10.2651C146.222 10.058 145.797 9.95429 145.343 9.95429C144.607 9.95429 143.993 10.1526 143.5 10.5488C143.007 10.945 142.665 11.4967 142.475 12.2037L141.169 17.0498H138.391L140.909 7.7779H142.855L143.648 7.77658L143.285 9.13565C143.643 8.66627 144.068 8.29166 144.566 8.02478C145.147 7.71372 145.749 7.55835 146.375 7.55835C146.767 7.55835 147.082 7.61943 147.319 7.74137ZM154.355 12.4228C154.121 13.2889 153.759 13.95 153.268 14.4071C152.777 14.8644 152.188 15.0928 151.502 15.0928C150.815 15.0928 150.347 14.8614 150.098 14.3979C149.848 13.9348 149.842 13.2642 150.079 12.3863C150.316 11.5084 150.684 10.8348 151.184 10.3656C151.685 9.89638 152.279 9.6613 152.966 9.6613C153.64 9.6613 154.098 9.90551 154.341 10.393C154.583 10.8807 154.588 11.5576 154.355 12.4228ZM156.296 8.15268C155.781 7.74428 155.124 7.54026 154.328 7.54026C153.629 7.54026 152.963 7.69868 152.333 8.01557C151.701 8.33303 151.189 8.76515 150.796 9.31403L150.805 9.25321L151.272 7.77645H150.735V7.77776H148.56L147.869 10.3417C147.867 10.3501 147.865 10.3584 147.863 10.3666C147.861 10.3728 147.86 10.3791 147.858 10.3853L147.858 10.386L147.858 10.3869L147.853 10.4058L147.847 10.4295L144.998 20.9999H147.776L149.21 15.6785C149.351 16.1535 149.643 16.5257 150.086 16.7936C150.529 17.0618 151.075 17.1959 151.726 17.1959C152.535 17.1959 153.304 17.0013 154.035 16.6108C154.766 16.221 155.401 15.663 155.939 14.9374C156.478 14.2124 156.876 13.374 157.132 12.4228C157.388 11.4719 157.441 10.6247 157.293 9.8809C157.144 9.13735 156.811 8.5614 156.296 8.15268ZM181.001 7.7779L180.999 7.78047H181.001L180.996 7.7843L177.53 12.6643L173.416 18.4623L173.39 18.4994L172.471 19.7954L172.44 19.8386L172.44 19.8387L172.436 19.8431C172.425 19.8585 172.414 19.8737 172.403 19.8904L171.615 21H170.471H168.811H168.719L171.97 16.5225L170.498 7.7779H173.404L174.14 13.5326L177.689 8.61858L177.738 8.54695C177.776 8.49254 177.812 8.44563 177.848 8.39903L178.294 7.78047H179.168L179.202 7.77968C179.24 7.77879 179.277 7.7779 179.318 7.7779H181.001ZM81 17.0497L82.3082 12.1971L90.1272 7.17749L87.4771 17.0497H81Z" fill="#999FB7"/>
<path d="M3.91477 6.2C5.27743 6.2 6.32277 6.46133 7.05077 6.984C7.7881 7.49733 8.15677 8.26733 8.15677 9.294C8.15677 9.854 8.0541 10.3347 7.84877 10.736C7.65277 11.128 7.36343 11.45 6.98077 11.702C6.60743 11.9447 6.1501 12.122 5.60877 12.234C5.06743 12.346 4.4561 12.402 3.77477 12.402H2.69677V16H1.33877V6.438C1.72143 6.34467 2.1461 6.284 2.61277 6.256C3.08877 6.21867 3.52277 6.2 3.91477 6.2ZM4.02677 7.39C3.4481 7.39 3.00477 7.404 2.69677 7.432V11.24H3.71877C4.18543 11.24 4.60543 11.212 4.97877 11.156C5.3521 11.0907 5.66477 10.988 5.91677 10.848C6.1781 10.6987 6.37877 10.498 6.51877 10.246C6.65877 9.994 6.72877 9.672 6.72877 9.28C6.72877 8.90667 6.6541 8.59867 6.50477 8.356C6.36477 8.11333 6.16877 7.922 5.91677 7.782C5.6741 7.63267 5.38943 7.53 5.06277 7.474C4.7361 7.418 4.39077 7.39 4.02677 7.39ZM15.8976 12.36C15.8976 12.9387 15.8136 13.4613 15.6456 13.928C15.4776 14.3947 15.2396 14.796 14.9316 15.132C14.6329 15.468 14.2736 15.7293 13.8536 15.916C13.4336 16.0933 12.9762 16.182 12.4816 16.182C11.9869 16.182 11.5296 16.0933 11.1096 15.916C10.6896 15.7293 10.3256 15.468 10.0176 15.132C9.7189 14.796 9.48556 14.3947 9.31756 13.928C9.14956 13.4613 9.06556 12.9387 9.06556 12.36C9.06556 11.7907 9.14956 11.2727 9.31756 10.806C9.48556 10.33 9.7189 9.924 10.0176 9.588C10.3256 9.252 10.6896 8.99533 11.1096 8.818C11.5296 8.63133 11.9869 8.538 12.4816 8.538C12.9762 8.538 13.4336 8.63133 13.8536 8.818C14.2736 8.99533 14.6329 9.252 14.9316 9.588C15.2396 9.924 15.4776 10.33 15.6456 10.806C15.8136 11.2727 15.8976 11.7907 15.8976 12.36ZM14.5396 12.36C14.5396 11.5387 14.3529 10.89 13.9796 10.414C13.6156 9.92867 13.1162 9.686 12.4816 9.686C11.8469 9.686 11.3429 9.92867 10.9696 10.414C10.6056 10.89 10.4236 11.5387 10.4236 12.36C10.4236 13.1813 10.6056 13.8347 10.9696 14.32C11.3429 14.796 11.8469 15.034 12.4816 15.034C13.1162 15.034 13.6156 14.796 13.9796 14.32C14.3529 13.8347 14.5396 13.1813 14.5396 12.36ZM23.5016 16C23.2403 15.328 22.9603 14.5627 22.6616 13.704C22.3723 12.836 22.1063 11.9353 21.8636 11.002C21.621 11.9353 21.355 12.836 21.0656 13.704C20.7763 14.5627 20.501 15.328 20.2396 16H19.1056C18.6763 15.0387 18.2563 13.942 17.8456 12.71C17.435 11.478 17.0476 10.148 16.6836 8.72H18.0836C18.177 9.15867 18.289 9.63467 18.4196 10.148C18.5503 10.6613 18.6856 11.1747 18.8256 11.688C18.975 12.2013 19.129 12.696 19.2876 13.172C19.4463 13.648 19.5956 14.0633 19.7356 14.418C19.8943 13.9793 20.0483 13.5173 20.1976 13.032C20.3563 12.5373 20.5056 12.0427 20.6456 11.548C20.7856 11.044 20.9163 10.554 21.0376 10.078C21.1683 9.59267 21.2803 9.14 21.3736 8.72H22.4516C22.5356 9.14 22.6383 9.59267 22.7596 10.078C22.881 10.554 23.0116 11.044 23.1516 11.548C23.2916 12.0427 23.4363 12.5373 23.5856 13.032C23.7443 13.5173 23.903 13.9793 24.0616 14.418C24.2016 14.0633 24.3463 13.648 24.4956 13.172C24.6543 12.696 24.8083 12.2013 24.9576 11.688C25.107 11.1747 25.247 10.6613 25.3776 10.148C25.5083 9.63467 25.6203 9.15867 25.7136 8.72H27.0576C26.6936 10.148 26.3063 11.478 25.8956 12.71C25.485 13.942 25.065 15.0387 24.6356 16H23.5016ZM28.0285 12.374C28.0285 11.73 28.1218 11.17 28.3085 10.694C28.4951 10.2087 28.7425 9.80733 29.0505 9.49C29.3585 9.17267 29.7131 8.93467 30.1145 8.776C30.5158 8.61733 30.9265 8.538 31.3465 8.538C32.3265 8.538 33.0778 8.846 33.6005 9.462C34.1231 10.0687 34.3845 10.9973 34.3845 12.248C34.3845 12.304 34.3845 12.3787 34.3845 12.472C34.3845 12.556 34.3798 12.6353 34.3705 12.71H29.3865C29.4425 13.466 29.6618 14.04 30.0445 14.432C30.4271 14.824 31.0245 15.02 31.8365 15.02C32.2938 15.02 32.6765 14.9827 32.9845 14.908C33.3018 14.824 33.5398 14.7447 33.6985 14.67L33.8805 15.762C33.7218 15.846 33.4418 15.9347 33.0405 16.028C32.6485 16.1213 32.2005 16.168 31.6965 16.168C31.0618 16.168 30.5111 16.0747 30.0445 15.888C29.5871 15.692 29.2091 15.426 28.9105 15.09C28.6118 14.754 28.3878 14.3573 28.2385 13.9C28.0985 13.4333 28.0285 12.9247 28.0285 12.374ZM33.0265 11.66C33.0358 11.072 32.8865 10.5913 32.5785 10.218C32.2798 9.83533 31.8645 9.644 31.3325 9.644C31.0338 9.644 30.7678 9.70467 30.5345 9.826C30.3105 9.938 30.1191 10.0873 29.9605 10.274C29.8018 10.4607 29.6758 10.6753 29.5825 10.918C29.4985 11.1607 29.4425 11.408 29.4145 11.66H33.0265ZM38.9428 8.566C39.0548 8.566 39.1808 8.57533 39.3208 8.594C39.4701 8.60333 39.6148 8.622 39.7548 8.65C39.8948 8.66867 40.0208 8.692 40.1328 8.72C40.2541 8.73867 40.3428 8.75733 40.3988 8.776L40.1748 9.91C40.0721 9.87267 39.8994 9.83067 39.6568 9.784C39.4234 9.728 39.1201 9.7 38.7468 9.7C38.5041 9.7 38.2614 9.728 38.0188 9.784C37.7854 9.83067 37.6314 9.86333 37.5568 9.882V16H36.2548V9.028C36.5628 8.916 36.9454 8.81333 37.4028 8.72C37.8601 8.61733 38.3734 8.566 38.9428 8.566ZM41.2492 12.374C41.2492 11.73 41.3425 11.17 41.5292 10.694C41.7158 10.2087 41.9632 9.80733 42.2712 9.49C42.5792 9.17267 42.9338 8.93467 43.3352 8.776C43.7365 8.61733 44.1472 8.538 44.5672 8.538C45.5472 8.538 46.2985 8.846 46.8212 9.462C47.3438 10.0687 47.6052 10.9973 47.6052 12.248C47.6052 12.304 47.6052 12.3787 47.6052 12.472C47.6052 12.556 47.6005 12.6353 47.5912 12.71H42.6072C42.6632 13.466 42.8825 14.04 43.2652 14.432C43.6478 14.824 44.2452 15.02 45.0572 15.02C45.5145 15.02 45.8972 14.9827 46.2052 14.908C46.5225 14.824 46.7605 14.7447 46.9192 14.67L47.1012 15.762C46.9425 15.846 46.6625 15.9347 46.2612 16.028C45.8692 16.1213 45.4212 16.168 44.9172 16.168C44.2825 16.168 43.7318 16.0747 43.2652 15.888C42.8078 15.692 42.4298 15.426 42.1312 15.09C41.8325 14.754 41.6085 14.3573 41.4592 13.9C41.3192 13.4333 41.2492 12.9247 41.2492 12.374ZM46.2472 11.66C46.2565 11.072 46.1072 10.5913 45.7992 10.218C45.5005 9.83533 45.0852 9.644 44.5532 9.644C44.2545 9.644 43.9885 9.70467 43.7552 9.826C43.5312 9.938 43.3398 10.0873 43.1812 10.274C43.0225 10.4607 42.8965 10.6753 42.8032 10.918C42.7192 11.1607 42.6632 11.408 42.6352 11.66H46.2472ZM54.1795 10.26C54.0208 10.1293 53.7921 10.0033 53.4935 9.882C53.1948 9.76067 52.8681 9.7 52.5135 9.7C52.1401 9.7 51.8181 9.77 51.5475 9.91C51.2861 10.0407 51.0715 10.2273 50.9035 10.47C50.7355 10.7033 50.6141 10.9833 50.5395 11.31C50.4648 11.6367 50.4275 11.9867 50.4275 12.36C50.4275 13.2093 50.6375 13.8673 51.0575 14.334C51.4775 14.7913 52.0375 15.02 52.7375 15.02C53.0921 15.02 53.3861 15.006 53.6195 14.978C53.8621 14.9407 54.0488 14.9033 54.1795 14.866V10.26ZM54.1795 5.36L55.4815 5.136V15.79C55.1828 15.874 54.8001 15.958 54.3335 16.042C53.8668 16.126 53.3301 16.168 52.7235 16.168C52.1635 16.168 51.6595 16.0793 51.2115 15.902C50.7635 15.7247 50.3808 15.4727 50.0635 15.146C49.7461 14.8193 49.4988 14.4227 49.3215 13.956C49.1535 13.48 49.0695 12.948 49.0695 12.36C49.0695 11.8 49.1395 11.2867 49.2795 10.82C49.4288 10.3533 49.6435 9.952 49.9235 9.616C50.2035 9.28 50.5441 9.01867 50.9455 8.832C51.3561 8.64533 51.8228 8.552 52.3455 8.552C52.7655 8.552 53.1341 8.608 53.4515 8.72C53.7781 8.832 54.0208 8.93933 54.1795 9.042V5.36ZM62.2618 9.042C62.4205 8.93933 62.6585 8.832 62.9758 8.72C63.3025 8.608 63.6758 8.552 64.0958 8.552C64.6185 8.552 65.0805 8.64533 65.4818 8.832C65.8925 9.01867 66.2378 9.28 66.5178 9.616C66.7978 9.952 67.0078 10.3533 67.1478 10.82C67.2972 11.2867 67.3718 11.8 67.3718 12.36C67.3718 12.948 67.2832 13.48 67.1058 13.956C66.9378 14.4227 66.6952 14.8193 66.3778 15.146C66.0605 15.4727 65.6778 15.7247 65.2298 15.902C64.7818 16.0793 64.2778 16.168 63.7178 16.168C63.1112 16.168 62.5745 16.126 62.1078 16.042C61.6412 15.958 61.2585 15.874 60.9598 15.79V5.36L62.2618 5.136V9.042ZM62.2618 14.866C62.3925 14.9033 62.5745 14.9407 62.8078 14.978C63.0505 15.006 63.3492 15.02 63.7038 15.02C64.4038 15.02 64.9638 14.7913 65.3838 14.334C65.8038 13.8673 66.0138 13.2093 66.0138 12.36C66.0138 11.9867 65.9765 11.6367 65.9018 11.31C65.8272 10.9833 65.7058 10.7033 65.5378 10.47C65.3698 10.2273 65.1505 10.0407 64.8798 9.91C64.6185 9.77 64.3012 9.7 63.9278 9.7C63.5732 9.7 63.2465 9.76067 62.9478 9.882C62.6492 10.0033 62.4205 10.1293 62.2618 10.26V14.866ZM68.1723 17.358C68.2749 17.4047 68.4056 17.4467 68.5643 17.484C68.7323 17.5307 68.8956 17.554 69.0543 17.554C69.5676 17.554 69.9689 17.4373 70.2583 17.204C70.5476 16.98 70.8089 16.6113 71.0423 16.098C70.4543 14.978 69.9036 13.7927 69.3903 12.542C68.8863 11.282 68.4663 10.008 68.1303 8.72H69.5303C69.6329 9.14 69.7543 9.59267 69.8943 10.078C70.0436 10.5633 70.2069 11.0627 70.3843 11.576C70.5616 12.0893 70.7529 12.6027 70.9583 13.116C71.1636 13.6293 71.3783 14.124 71.6022 14.6C71.9569 13.62 72.2649 12.6493 72.5263 11.688C72.7876 10.7267 73.0349 9.73733 73.2683 8.72H74.6123C74.2763 10.092 73.9029 11.4127 73.4923 12.682C73.0816 13.942 72.6383 15.1227 72.1623 16.224C71.9756 16.644 71.7796 17.0033 71.5743 17.302C71.3783 17.61 71.1589 17.862 70.9163 18.058C70.6736 18.254 70.3983 18.3987 70.0903 18.492C69.7916 18.5853 69.4509 18.632 69.0683 18.632C68.9656 18.632 68.8583 18.6227 68.7463 18.604C68.6343 18.5947 68.5223 18.576 68.4103 18.548C68.3076 18.5293 68.2096 18.506 68.1163 18.478C68.0323 18.45 67.9716 18.4267 67.9343 18.408L68.1723 17.358Z" fill="#999FB7"/>
</svg>
