<svg width="16" height="16" viewBox="0 0 16 16" fill="none" xmlns="http://www.w3.org/2000/svg">
<path d="M8 0.25C9.375 0.25 10.6875 0.625 11.875 1.3125C13.0625 2 14 2.9375 14.6875 4.125C15.375 5.3125 15.75 6.625 15.75 8C15.75 9.40625 15.375 10.6875 14.6875 11.875C14 13.0625 13.0625 14.0312 11.875 14.7188C10.6875 15.4062 9.375 15.75 8 15.75C6.59375 15.75 5.3125 15.4062 4.125 14.7188C2.9375 14.0312 1.96875 13.0625 1.28125 11.875C0.59375 10.6875 0.25 9.40625 0.25 8C0.25 6.625 0.59375 5.3125 1.28125 4.125C1.96875 2.9375 2.9375 2 4.125 1.3125C5.3125 0.625 6.59375 0.25 8 0.25ZM11.8125 10.0312L9.75 8L11.8125 5.96875C11.875 5.90625 11.9062 5.8125 11.9062 5.71875C11.9062 5.625 11.875 5.53125 11.8125 5.4375L10.5625 4.1875C10.5 4.125 10.4062 4.09375 10.3125 4.09375C10.1875 4.09375 10.0938 4.125 10.0312 4.1875L8 6.25L5.96875 4.1875C5.875 4.125 5.78125 4.09375 5.6875 4.09375C5.59375 4.09375 5.5 4.125 5.4375 4.1875L4.1875 5.4375C4.125 5.5 4.09375 5.59375 4.09375 5.6875C4.09375 5.8125 4.125 5.90625 4.1875 5.96875L6.25 8L4.1875 10.0312C4.125 10.125 4.09375 10.2188 4.09375 10.3125C4.09375 10.4062 4.125 10.5 4.1875 10.5625L5.4375 11.8125C5.5 11.875 5.5625 11.9062 5.6875 11.9062C5.78125 11.9062 5.875 11.875 5.96875 11.8125L8 9.75L10.0312 11.8125C10.0938 11.875 10.1875 11.9062 10.2812 11.9062C10.375 11.9062 10.4688 11.875 10.5625 11.8125L11.8125 10.5625C11.875 10.5 11.9062 10.4375 11.9062 10.3125C11.9062 10.2188 11.875 10.125 11.8125 10.0312Z" fill="#EB5757"/>
</svg>
