<svg width="19" height="19" viewBox="0 0 19 19" fill="none" xmlns="http://www.w3.org/2000/svg">
<path d="M17.9414 16.7383C18.0117 16.8086 18.0469 16.9141 18.0469 17.0195C18.0469 17.1602 18.0117 17.2656 17.9414 17.3359L17.1328 18.1094C17.0273 18.2148 16.9219 18.25 16.8164 18.25C16.6758 18.25 16.6055 18.2148 16.5352 18.1094L12.2461 13.8555C12.1758 13.7852 12.1406 13.6797 12.1406 13.5742V13.082C11.4727 13.6445 10.7344 14.1016 9.92578 14.418C9.08203 14.7344 8.23828 14.875 7.35938 14.875C6.02344 14.875 4.79297 14.5586 3.66797 13.8906C2.54297 13.2578 1.66406 12.3789 1.03125 11.2539C0.363281 10.1289 0.046875 8.89844 0.046875 7.5625C0.046875 6.22656 0.363281 5.03125 1.03125 3.90625C1.66406 2.78125 2.54297 1.90234 3.66797 1.23438C4.79297 0.601562 6.02344 0.25 7.35938 0.25C8.69531 0.25 9.89062 0.601562 11.0156 1.23438C12.1406 1.90234 13.0195 2.78125 13.6875 3.90625C14.3203 5.03125 14.6719 6.22656 14.6719 7.5625C14.6719 8.47656 14.4961 9.32031 14.1797 10.1289C13.8633 10.9727 13.4414 11.7109 12.8789 12.3438H13.3711C13.4766 12.3438 13.582 12.3789 13.6523 12.4492L17.9414 16.7383ZM7.35938 13.1875C8.34375 13.1875 9.29297 12.9414 10.1719 12.4492C11.0156 11.957 11.7188 11.2539 12.2109 10.375C12.7031 9.53125 12.9844 8.58203 12.9844 7.5625C12.9844 6.57812 12.7031 5.62891 12.2109 4.75C11.7188 3.90625 11.0156 3.20312 10.1719 2.71094C9.29297 2.21875 8.34375 1.9375 7.35938 1.9375C6.33984 1.9375 5.39062 2.21875 4.54688 2.71094C3.66797 3.20312 2.96484 3.90625 2.47266 4.75C1.98047 5.62891 1.73438 6.57812 1.73438 7.5625C1.73438 8.58203 1.98047 9.53125 2.47266 10.375C2.96484 11.2539 3.66797 11.957 4.54688 12.4492C5.39062 12.9414 6.33984 13.1875 7.35938 13.1875Z" fill="#999FB7"/>
</svg>
