<svg width="161" height="30" viewBox="0 0 161 30" fill="none" xmlns="http://www.w3.org/2000/svg">
<path d="M27.3646 7.85328C27.3346 7.07328 27.3346 6.32328 27.3346 5.60328C27.3346 5.03328 26.8846 4.58328 26.3146 4.58328C21.9046 4.55328 18.5446 3.29328 15.7546 0.593281C15.3646 0.203281 14.7046 0.203281 14.3146 0.593281C11.5246 3.29328 8.16456 4.55328 3.78456 4.55328C3.21456 4.55328 2.76456 5.00328 2.76456 5.57328C2.76456 6.29328 2.76456 7.04328 2.73456 7.85328C2.58456 15.2633 2.37456 25.3733 14.7046 29.6333C14.8246 29.6633 14.9146 29.6933 15.0346 29.6933C15.1546 29.6933 15.2746 29.6633 15.3646 29.6333C27.6946 25.3733 27.4846 15.2633 27.3646 7.85328ZM15.0346 27.5633C4.47456 23.7233 4.62456 15.3233 4.77456 7.91328C4.77456 7.46328 4.80456 7.04328 4.80456 6.62328C8.91456 6.41328 12.2146 5.18328 15.0346 2.72328C17.8546 5.18328 21.1546 6.44328 25.2646 6.59328C25.2646 7.01328 25.2646 7.43328 25.2946 7.88328C25.4446 15.3233 25.5946 23.7233 15.0346 27.5633Z" fill="#999FB7"/>
<path d="M18.5738 11.4224L13.6238 16.3724L11.4938 14.2424C11.1038 13.8524 10.4438 13.8524 10.0238 14.2424C9.63382 14.6324 9.63382 15.2924 10.0238 15.7124L12.8738 18.5624C13.0838 18.7724 13.3238 18.8624 13.5938 18.8624C13.8638 18.8624 14.1338 18.7724 14.3138 18.5624L20.0138 12.8624C20.4038 12.4724 20.4038 11.8124 20.0138 11.3924C19.6238 11.0024 18.9638 11.0024 18.5738 11.4224Z" fill="#999FB7"/>
<path d="M35.116 12.4C35.572 12.224 36.016 12 36.448 11.728C36.88 11.448 37.276 11.1 37.636 10.684H38.428V19H37.312V12.232C37.216 12.32 37.096 12.412 36.952 12.508C36.816 12.604 36.664 12.696 36.496 12.784C36.336 12.872 36.164 12.956 35.98 13.036C35.804 13.116 35.632 13.184 35.464 13.24L35.116 12.4ZM41.3734 14.836C41.3734 13.444 41.6174 12.372 42.1054 11.62C42.6014 10.868 43.2854 10.492 44.1574 10.492C45.0294 10.492 45.7094 10.868 46.1974 11.62C46.6934 12.372 46.9414 13.444 46.9414 14.836C46.9414 16.228 46.6934 17.3 46.1974 18.052C45.7094 18.804 45.0294 19.18 44.1574 19.18C43.2854 19.18 42.6014 18.804 42.1054 18.052C41.6174 17.3 41.3734 16.228 41.3734 14.836ZM45.7654 14.836C45.7654 14.38 45.7374 13.948 45.6814 13.54C45.6334 13.132 45.5454 12.776 45.4174 12.472C45.2974 12.168 45.1334 11.928 44.9254 11.752C44.7174 11.568 44.4614 11.476 44.1574 11.476C43.8534 11.476 43.5974 11.568 43.3894 11.752C43.1814 11.928 43.0134 12.168 42.8854 12.472C42.7654 12.776 42.6774 13.132 42.6214 13.54C42.5734 13.948 42.5494 14.38 42.5494 14.836C42.5494 15.292 42.5734 15.724 42.6214 16.132C42.6774 16.54 42.7654 16.896 42.8854 17.2C43.0134 17.504 43.1814 17.748 43.3894 17.932C43.5974 18.108 43.8534 18.196 44.1574 18.196C44.4614 18.196 44.7174 18.108 44.9254 17.932C45.1334 17.748 45.2974 17.504 45.4174 17.2C45.5454 16.896 45.6334 16.54 45.6814 16.132C45.7374 15.724 45.7654 15.292 45.7654 14.836ZM48.1469 14.836C48.1469 13.444 48.3909 12.372 48.8789 11.62C49.3749 10.868 50.0589 10.492 50.9309 10.492C51.8029 10.492 52.4829 10.868 52.9709 11.62C53.4669 12.372 53.7149 13.444 53.7149 14.836C53.7149 16.228 53.4669 17.3 52.9709 18.052C52.4829 18.804 51.8029 19.18 50.9309 19.18C50.0589 19.18 49.3749 18.804 48.8789 18.052C48.3909 17.3 48.1469 16.228 48.1469 14.836ZM52.5389 14.836C52.5389 14.38 52.5109 13.948 52.4549 13.54C52.4069 13.132 52.3189 12.776 52.1909 12.472C52.0709 12.168 51.9069 11.928 51.6989 11.752C51.4909 11.568 51.2349 11.476 50.9309 11.476C50.6269 11.476 50.3709 11.568 50.1629 11.752C49.9549 11.928 49.7869 12.168 49.6589 12.472C49.5389 12.776 49.4509 13.132 49.3949 13.54C49.3469 13.948 49.3229 14.38 49.3229 14.836C49.3229 15.292 49.3469 15.724 49.3949 16.132C49.4509 16.54 49.5389 16.896 49.6589 17.2C49.7869 17.504 49.9549 17.748 50.1629 17.932C50.3709 18.108 50.6269 18.196 50.9309 18.196C51.2349 18.196 51.4909 18.108 51.6989 17.932C51.9069 17.748 52.0709 17.504 52.1909 17.2C52.3189 16.896 52.4069 16.54 52.4549 16.132C52.5109 15.724 52.5389 15.292 52.5389 14.836ZM54.9203 12.712C54.9203 12.352 54.9683 12.036 55.0643 11.764C55.1603 11.492 55.2923 11.264 55.4603 11.08C55.6363 10.888 55.8403 10.744 56.0723 10.648C56.3043 10.552 56.5563 10.504 56.8283 10.504C57.1003 10.504 57.3523 10.552 57.5843 10.648C57.8163 10.744 58.0163 10.888 58.1843 11.08C58.3603 11.264 58.4963 11.492 58.5923 11.764C58.6883 12.036 58.7363 12.352 58.7363 12.712C58.7363 13.072 58.6883 13.388 58.5923 13.66C58.4963 13.932 58.3603 14.164 58.1843 14.356C58.0163 14.54 57.8163 14.68 57.5843 14.776C57.3523 14.872 57.1003 14.92 56.8283 14.92C56.5563 14.92 56.3043 14.872 56.0723 14.776C55.8403 14.68 55.6363 14.54 55.4603 14.356C55.2923 14.164 55.1603 13.932 55.0643 13.66C54.9683 13.388 54.9203 13.072 54.9203 12.712ZM57.8003 12.712C57.8003 12.28 57.7163 11.944 57.5483 11.704C57.3803 11.456 57.1403 11.332 56.8283 11.332C56.5163 11.332 56.2763 11.456 56.1083 11.704C55.9403 11.944 55.8563 12.28 55.8563 12.712C55.8563 13.144 55.9403 13.484 56.1083 13.732C56.2763 13.972 56.5163 14.092 56.8283 14.092C57.1403 14.092 57.3803 13.972 57.5483 13.732C57.7163 13.484 57.8003 13.144 57.8003 12.712ZM60.2003 16.972C60.2003 16.612 60.2483 16.296 60.3443 16.024C60.4403 15.752 60.5723 15.524 60.7403 15.34C60.9163 15.148 61.1203 15.004 61.3523 14.908C61.5843 14.812 61.8363 14.764 62.1083 14.764C62.3803 14.764 62.6323 14.812 62.8643 14.908C63.0963 15.004 63.2963 15.148 63.4643 15.34C63.6403 15.524 63.7763 15.752 63.8723 16.024C63.9683 16.296 64.0163 16.612 64.0163 16.972C64.0163 17.332 63.9683 17.648 63.8723 17.92C63.7763 18.192 63.6403 18.424 63.4643 18.616C63.2963 18.8 63.0963 18.94 62.8643 19.036C62.6323 19.132 62.3803 19.18 62.1083 19.18C61.8363 19.18 61.5843 19.132 61.3523 19.036C61.1203 18.94 60.9163 18.8 60.7403 18.616C60.5723 18.424 60.4403 18.192 60.3443 17.92C60.2483 17.648 60.2003 17.332 60.2003 16.972ZM63.0803 16.972C63.0803 16.54 62.9963 16.204 62.8283 15.964C62.6603 15.716 62.4203 15.592 62.1083 15.592C61.7963 15.592 61.5563 15.716 61.3883 15.964C61.2203 16.204 61.1363 16.54 61.1363 16.972C61.1363 17.404 61.2203 17.744 61.3883 17.992C61.5563 18.232 61.7963 18.352 62.1083 18.352C62.4203 18.352 62.6603 18.232 62.8283 17.992C62.9963 17.744 63.0803 17.404 63.0803 16.972ZM62.3603 10.684L57.6683 19H56.5763L61.2683 10.684H62.3603ZM70.3624 18.172C71.5784 18.172 72.1864 17.756 72.1864 16.924C72.1864 16.668 72.1304 16.452 72.0184 16.276C71.9144 16.092 71.7704 15.936 71.5864 15.808C71.4024 15.672 71.1904 15.556 70.9504 15.46C70.7184 15.364 70.4704 15.268 70.2064 15.172C69.9024 15.068 69.6144 14.952 69.3424 14.824C69.0704 14.688 68.8344 14.532 68.6344 14.356C68.4344 14.172 68.2744 13.956 68.1544 13.708C68.0424 13.46 67.9864 13.16 67.9864 12.808C67.9864 12.08 68.2344 11.512 68.7304 11.104C69.2264 10.696 69.9104 10.492 70.7824 10.492C71.2864 10.492 71.7424 10.548 72.1504 10.66C72.5664 10.764 72.8704 10.88 73.0624 11.008L72.6904 11.956C72.5224 11.852 72.2704 11.752 71.9344 11.656C71.6064 11.552 71.2224 11.5 70.7824 11.5C70.5584 11.5 70.3504 11.524 70.1584 11.572C69.9664 11.62 69.7984 11.692 69.6544 11.788C69.5104 11.884 69.3944 12.008 69.3064 12.16C69.2264 12.304 69.1864 12.476 69.1864 12.676C69.1864 12.9 69.2304 13.088 69.3184 13.24C69.4064 13.392 69.5304 13.528 69.6904 13.648C69.8504 13.76 70.0344 13.864 70.2424 13.96C70.4584 14.056 70.6944 14.152 70.9504 14.248C71.3104 14.392 71.6384 14.536 71.9344 14.68C72.2384 14.824 72.4984 14.996 72.7144 15.196C72.9384 15.396 73.1104 15.636 73.2304 15.916C73.3504 16.188 73.4104 16.52 73.4104 16.912C73.4104 17.64 73.1424 18.2 72.6064 18.592C72.0784 18.984 71.3304 19.18 70.3624 19.18C70.0344 19.18 69.7304 19.156 69.4504 19.108C69.1784 19.068 68.9344 19.02 68.7184 18.964C68.5024 18.9 68.3144 18.836 68.1544 18.772C68.0024 18.7 67.8824 18.64 67.7944 18.592L68.1424 17.632C68.3264 17.736 68.6064 17.852 68.9824 17.98C69.3584 18.108 69.8184 18.172 70.3624 18.172ZM74.3972 15.892C74.3972 15.34 74.4772 14.86 74.6372 14.452C74.7972 14.036 75.0092 13.692 75.2732 13.42C75.5372 13.148 75.8412 12.944 76.1852 12.808C76.5292 12.672 76.8812 12.604 77.2412 12.604C78.0812 12.604 78.7252 12.868 79.1732 13.396C79.6212 13.916 79.8452 14.712 79.8452 15.784C79.8452 15.832 79.8452 15.896 79.8452 15.976C79.8452 16.048 79.8412 16.116 79.8332 16.18H75.5612C75.6092 16.828 75.7972 17.32 76.1252 17.656C76.4532 17.992 76.9652 18.16 77.6612 18.16C78.0532 18.16 78.3812 18.128 78.6452 18.064C78.9172 17.992 79.1212 17.924 79.2572 17.86L79.4132 18.796C79.2772 18.868 79.0372 18.944 78.6932 19.024C78.3572 19.104 77.9732 19.144 77.5412 19.144C76.9972 19.144 76.5252 19.064 76.1252 18.904C75.7332 18.736 75.4092 18.508 75.1532 18.22C74.8972 17.932 74.7052 17.592 74.5772 17.2C74.4572 16.8 74.3972 16.364 74.3972 15.892ZM78.6812 15.28C78.6892 14.776 78.5612 14.364 78.2972 14.044C78.0412 13.716 77.6852 13.552 77.2292 13.552C76.9732 13.552 76.7452 13.604 76.5452 13.708C76.3532 13.804 76.1892 13.932 76.0532 14.092C75.9172 14.252 75.8092 14.436 75.7292 14.644C75.6572 14.852 75.6092 15.064 75.5852 15.28H78.6812ZM84.1603 19.144C83.6563 19.144 83.2123 19.064 82.8283 18.904C82.4523 18.744 82.1323 18.52 81.8683 18.232C81.6123 17.944 81.4203 17.604 81.2923 17.212C81.1643 16.812 81.1003 16.372 81.1003 15.892C81.1003 15.412 81.1683 14.972 81.3043 14.572C81.4483 14.172 81.6483 13.828 81.9043 13.54C82.1603 13.244 82.4723 13.016 82.8403 12.856C83.2163 12.688 83.6323 12.604 84.0883 12.604C84.3683 12.604 84.6483 12.628 84.9283 12.676C85.2083 12.724 85.4763 12.8 85.7323 12.904L85.4803 13.852C85.3123 13.772 85.1163 13.708 84.8923 13.66C84.6763 13.612 84.4443 13.588 84.1963 13.588C83.5723 13.588 83.0923 13.784 82.7563 14.176C82.4283 14.568 82.2643 15.14 82.2643 15.892C82.2643 16.228 82.3003 16.536 82.3723 16.816C82.4523 17.096 82.5723 17.336 82.7323 17.536C82.9003 17.736 83.1123 17.892 83.3683 18.004C83.6243 18.108 83.9363 18.16 84.3043 18.16C84.6003 18.16 84.8683 18.132 85.1083 18.076C85.3483 18.02 85.5363 17.96 85.6723 17.896L85.8283 18.832C85.7643 18.872 85.6723 18.912 85.5523 18.952C85.4323 18.984 85.2963 19.012 85.1443 19.036C84.9923 19.068 84.8283 19.092 84.6523 19.108C84.4843 19.132 84.3203 19.144 84.1603 19.144ZM91.9944 18.82C91.7384 18.884 91.3984 18.952 90.9744 19.024C90.5584 19.096 90.0744 19.132 89.5224 19.132C89.0424 19.132 88.6384 19.064 88.3104 18.928C87.9824 18.784 87.7184 18.584 87.5184 18.328C87.3184 18.072 87.1744 17.772 87.0864 17.428C86.9984 17.076 86.9544 16.688 86.9544 16.264V12.76H88.0704V16.024C88.0704 16.784 88.1904 17.328 88.4304 17.656C88.6704 17.984 89.0744 18.148 89.6424 18.148C89.7624 18.148 89.8864 18.144 90.0144 18.136C90.1424 18.128 90.2624 18.12 90.3744 18.112C90.4864 18.096 90.5864 18.084 90.6744 18.076C90.7704 18.06 90.8384 18.044 90.8784 18.028V12.76H91.9944V18.82ZM96.221 12.628C96.317 12.628 96.425 12.636 96.545 12.652C96.673 12.66 96.797 12.676 96.917 12.7C97.037 12.716 97.145 12.736 97.241 12.76C97.345 12.776 97.421 12.792 97.469 12.808L97.277 13.78C97.189 13.748 97.041 13.712 96.833 13.672C96.633 13.624 96.373 13.6 96.053 13.6C95.845 13.6 95.637 13.624 95.429 13.672C95.229 13.712 95.097 13.74 95.033 13.756V19H93.917V13.024C94.181 12.928 94.509 12.84 94.901 12.76C95.293 12.672 95.733 12.628 96.221 12.628ZM98.1979 15.892C98.1979 15.34 98.2779 14.86 98.4379 14.452C98.5979 14.036 98.8099 13.692 99.0739 13.42C99.3379 13.148 99.6419 12.944 99.9859 12.808C100.33 12.672 100.682 12.604 101.042 12.604C101.882 12.604 102.526 12.868 102.974 13.396C103.422 13.916 103.646 14.712 103.646 15.784C103.646 15.832 103.646 15.896 103.646 15.976C103.646 16.048 103.642 16.116 103.634 16.18H99.3619C99.4099 16.828 99.5979 17.32 99.9259 17.656C100.254 17.992 100.766 18.16 101.462 18.16C101.854 18.16 102.182 18.128 102.446 18.064C102.718 17.992 102.922 17.924 103.058 17.86L103.214 18.796C103.078 18.868 102.838 18.944 102.494 19.024C102.158 19.104 101.774 19.144 101.342 19.144C100.798 19.144 100.326 19.064 99.9259 18.904C99.5339 18.736 99.2099 18.508 98.9539 18.22C98.6979 17.932 98.5059 17.592 98.3779 17.2C98.2579 16.8 98.1979 16.364 98.1979 15.892ZM102.482 15.28C102.49 14.776 102.362 14.364 102.098 14.044C101.842 13.716 101.486 13.552 101.03 13.552C100.774 13.552 100.546 13.604 100.346 13.708C100.154 13.804 99.9899 13.932 99.8539 14.092C99.7179 14.252 99.6099 14.436 99.5299 14.644C99.4579 14.852 99.4099 15.064 99.3859 15.28H102.482ZM110.306 10.6C111.474 10.6 112.37 10.824 112.994 11.272C113.626 11.712 113.942 12.372 113.942 13.252C113.942 13.732 113.854 14.144 113.678 14.488C113.51 14.824 113.262 15.1 112.934 15.316C112.614 15.524 112.222 15.676 111.758 15.772C111.294 15.868 110.77 15.916 110.186 15.916H109.262V19H108.098V10.804C108.426 10.724 108.79 10.672 109.19 10.648C109.598 10.616 109.97 10.6 110.306 10.6ZM110.402 11.62C109.906 11.62 109.526 11.632 109.262 11.656V14.92H110.138C110.538 14.92 110.898 14.896 111.218 14.848C111.538 14.792 111.806 14.704 112.022 14.584C112.246 14.456 112.418 14.284 112.538 14.068C112.658 13.852 112.718 13.576 112.718 13.24C112.718 12.92 112.654 12.656 112.526 12.448C112.406 12.24 112.238 12.076 112.022 11.956C111.814 11.828 111.57 11.74 111.29 11.692C111.01 11.644 110.714 11.62 110.402 11.62ZM117.217 18.196C117.481 18.196 117.713 18.192 117.913 18.184C118.121 18.168 118.293 18.144 118.429 18.112V16.252C118.349 16.212 118.217 16.18 118.033 16.156C117.857 16.124 117.641 16.108 117.385 16.108C117.217 16.108 117.037 16.12 116.845 16.144C116.661 16.168 116.489 16.22 116.329 16.3C116.177 16.372 116.049 16.476 115.945 16.612C115.841 16.74 115.789 16.912 115.789 17.128C115.789 17.528 115.917 17.808 116.173 17.968C116.429 18.12 116.777 18.196 117.217 18.196ZM117.121 12.604C117.569 12.604 117.945 12.664 118.249 12.784C118.561 12.896 118.809 13.06 118.993 13.276C119.185 13.484 119.321 13.736 119.401 14.032C119.481 14.32 119.521 14.64 119.521 14.992V18.892C119.425 18.908 119.289 18.932 119.113 18.964C118.945 18.988 118.753 19.012 118.537 19.036C118.321 19.06 118.085 19.08 117.829 19.096C117.581 19.12 117.333 19.132 117.085 19.132C116.733 19.132 116.409 19.096 116.113 19.024C115.817 18.952 115.561 18.84 115.345 18.688C115.129 18.528 114.961 18.32 114.841 18.064C114.721 17.808 114.661 17.5 114.661 17.14C114.661 16.796 114.729 16.5 114.865 16.252C115.009 16.004 115.201 15.804 115.441 15.652C115.681 15.5 115.961 15.388 116.281 15.316C116.601 15.244 116.937 15.208 117.289 15.208C117.401 15.208 117.517 15.216 117.637 15.232C117.757 15.24 117.869 15.256 117.973 15.28C118.085 15.296 118.181 15.312 118.261 15.328C118.341 15.344 118.397 15.356 118.429 15.364V15.052C118.429 14.868 118.409 14.688 118.369 14.512C118.329 14.328 118.257 14.168 118.153 14.032C118.049 13.888 117.905 13.776 117.721 13.696C117.545 13.608 117.313 13.564 117.025 13.564C116.657 13.564 116.333 13.592 116.053 13.648C115.781 13.696 115.577 13.748 115.441 13.804L115.309 12.88C115.453 12.816 115.693 12.756 116.029 12.7C116.365 12.636 116.729 12.604 117.121 12.604ZM120.466 20.164C120.554 20.204 120.666 20.24 120.802 20.272C120.946 20.312 121.086 20.332 121.222 20.332C121.662 20.332 122.006 20.232 122.254 20.032C122.502 19.84 122.726 19.524 122.926 19.084C122.422 18.124 121.95 17.108 121.51 16.036C121.078 14.956 120.718 13.864 120.43 12.76H121.63C121.718 13.12 121.822 13.508 121.942 13.924C122.07 14.34 122.21 14.768 122.362 15.208C122.514 15.648 122.678 16.088 122.854 16.528C123.03 16.968 123.214 17.392 123.406 17.8C123.71 16.96 123.974 16.128 124.198 15.304C124.422 14.48 124.634 13.632 124.834 12.76H125.986C125.698 13.936 125.378 15.068 125.026 16.156C124.674 17.236 124.294 18.248 123.886 19.192C123.726 19.552 123.558 19.86 123.382 20.116C123.214 20.38 123.026 20.596 122.818 20.764C122.61 20.932 122.374 21.056 122.11 21.136C121.854 21.216 121.562 21.256 121.234 21.256C121.146 21.256 121.054 21.248 120.958 21.232C120.862 21.224 120.766 21.208 120.67 21.184C120.582 21.168 120.498 21.148 120.418 21.124C120.346 21.1 120.294 21.08 120.262 21.064L120.466 20.164ZM127.163 12.94C127.419 12.876 127.755 12.808 128.171 12.736C128.595 12.664 129.083 12.628 129.635 12.628C130.035 12.628 130.371 12.684 130.643 12.796C130.915 12.9 131.143 13.056 131.327 13.264C131.383 13.224 131.471 13.168 131.591 13.096C131.711 13.024 131.859 12.956 132.035 12.892C132.211 12.82 132.407 12.76 132.623 12.712C132.839 12.656 133.071 12.628 133.319 12.628C133.799 12.628 134.191 12.7 134.495 12.844C134.799 12.98 135.035 13.176 135.203 13.432C135.379 13.688 135.495 13.992 135.551 14.344C135.615 14.696 135.647 15.08 135.647 15.496V19H134.531V15.736C134.531 15.368 134.511 15.052 134.471 14.788C134.439 14.524 134.371 14.304 134.267 14.128C134.171 13.952 134.035 13.824 133.859 13.744C133.691 13.656 133.471 13.612 133.199 13.612C132.823 13.612 132.511 13.664 132.263 13.768C132.023 13.864 131.859 13.952 131.771 14.032C131.835 14.24 131.883 14.468 131.915 14.716C131.947 14.964 131.963 15.224 131.963 15.496V19H130.847V15.736C130.847 15.368 130.827 15.052 130.787 14.788C130.747 14.524 130.675 14.304 130.571 14.128C130.475 13.952 130.339 13.824 130.163 13.744C129.995 13.656 129.779 13.612 129.515 13.612C129.403 13.612 129.283 13.616 129.155 13.624C129.027 13.632 128.903 13.644 128.783 13.66C128.671 13.668 128.567 13.68 128.471 13.696C128.375 13.712 128.311 13.724 128.279 13.732V19H127.163V12.94ZM137.151 15.892C137.151 15.34 137.231 14.86 137.391 14.452C137.551 14.036 137.763 13.692 138.027 13.42C138.291 13.148 138.595 12.944 138.939 12.808C139.283 12.672 139.635 12.604 139.995 12.604C140.835 12.604 141.479 12.868 141.927 13.396C142.375 13.916 142.599 14.712 142.599 15.784C142.599 15.832 142.599 15.896 142.599 15.976C142.599 16.048 142.595 16.116 142.587 16.18H138.315C138.363 16.828 138.551 17.32 138.879 17.656C139.207 17.992 139.719 18.16 140.415 18.16C140.807 18.16 141.135 18.128 141.399 18.064C141.671 17.992 141.875 17.924 142.011 17.86L142.167 18.796C142.031 18.868 141.791 18.944 141.447 19.024C141.111 19.104 140.727 19.144 140.295 19.144C139.751 19.144 139.279 19.064 138.879 18.904C138.487 18.736 138.163 18.508 137.907 18.22C137.651 17.932 137.459 17.592 137.331 17.2C137.211 16.8 137.151 16.364 137.151 15.892ZM141.435 15.28C141.443 14.776 141.315 14.364 141.051 14.044C140.795 13.716 140.439 13.552 139.983 13.552C139.727 13.552 139.499 13.604 139.299 13.708C139.107 13.804 138.943 13.932 138.807 14.092C138.671 14.252 138.563 14.436 138.483 14.644C138.411 14.852 138.363 15.064 138.339 15.28H141.435ZM144.202 12.94C144.458 12.876 144.798 12.808 145.222 12.736C145.646 12.664 146.134 12.628 146.686 12.628C147.182 12.628 147.594 12.7 147.922 12.844C148.25 12.98 148.51 13.176 148.702 13.432C148.902 13.68 149.042 13.98 149.122 14.332C149.202 14.684 149.242 15.072 149.242 15.496V19H148.126V15.736C148.126 15.352 148.098 15.024 148.042 14.752C147.994 14.48 147.91 14.26 147.79 14.092C147.67 13.924 147.51 13.804 147.31 13.732C147.11 13.652 146.862 13.612 146.566 13.612C146.446 13.612 146.322 13.616 146.194 13.624C146.066 13.632 145.942 13.644 145.822 13.66C145.71 13.668 145.606 13.68 145.51 13.696C145.422 13.712 145.358 13.724 145.318 13.732V19H144.202V12.94ZM152.137 12.76H154.501V13.696H152.137V16.576C152.137 16.888 152.161 17.148 152.209 17.356C152.257 17.556 152.329 17.716 152.425 17.836C152.521 17.948 152.641 18.028 152.785 18.076C152.929 18.124 153.097 18.148 153.289 18.148C153.625 18.148 153.893 18.112 154.093 18.04C154.301 17.96 154.445 17.904 154.525 17.872L154.741 18.796C154.629 18.852 154.433 18.92 154.153 19C153.873 19.088 153.553 19.132 153.193 19.132C152.769 19.132 152.417 19.08 152.137 18.976C151.865 18.864 151.645 18.7 151.477 18.484C151.309 18.268 151.189 18.004 151.117 17.692C151.053 17.372 151.021 17.004 151.021 16.588V11.02L152.137 10.828V12.76ZM157.373 18.196C157.829 18.196 158.165 18.136 158.381 18.016C158.605 17.896 158.717 17.704 158.717 17.44C158.717 17.168 158.609 16.952 158.393 16.792C158.177 16.632 157.821 16.452 157.325 16.252C157.085 16.156 156.853 16.06 156.629 15.964C156.413 15.86 156.225 15.74 156.065 15.604C155.905 15.468 155.777 15.304 155.681 15.112C155.585 14.92 155.537 14.684 155.537 14.404C155.537 13.852 155.741 13.416 156.149 13.096C156.557 12.768 157.113 12.604 157.817 12.604C157.993 12.604 158.169 12.616 158.345 12.64C158.521 12.656 158.685 12.68 158.837 12.712C158.989 12.736 159.121 12.764 159.233 12.796C159.353 12.828 159.445 12.856 159.509 12.88L159.305 13.84C159.185 13.776 158.997 13.712 158.741 13.648C158.485 13.576 158.177 13.54 157.817 13.54C157.505 13.54 157.233 13.604 157.001 13.732C156.769 13.852 156.653 14.044 156.653 14.308C156.653 14.444 156.677 14.564 156.725 14.668C156.781 14.772 156.861 14.868 156.965 14.956C157.077 15.036 157.213 15.112 157.373 15.184C157.533 15.256 157.725 15.332 157.949 15.412C158.245 15.524 158.509 15.636 158.741 15.748C158.973 15.852 159.169 15.976 159.329 16.12C159.497 16.264 159.625 16.44 159.713 16.648C159.801 16.848 159.845 17.096 159.845 17.392C159.845 17.968 159.629 18.404 159.197 18.7C158.773 18.996 158.165 19.144 157.373 19.144C156.821 19.144 156.389 19.096 156.077 19C155.765 18.912 155.553 18.844 155.441 18.796L155.645 17.836C155.773 17.884 155.977 17.956 156.257 18.052C156.537 18.148 156.909 18.196 157.373 18.196Z" fill="#999FB7"/>
</svg>
