<svg width="18" height="18" viewBox="0 0 18 18" fill="none" xmlns="http://www.w3.org/2000/svg">
<path d="M9 0.53125C10.5469 0.53125 12.0234 0.953125 13.3594 1.72656C14.6953 2.5 15.75 3.55469 16.5234 4.89062C17.2969 6.22656 17.7188 7.70312 17.7188 9.25C17.7188 10.832 17.2969 12.2734 16.5234 13.6094C15.75 14.9453 14.6953 16.0352 13.3594 16.8086C12.0234 17.582 10.5469 17.9688 9 17.9688C7.41797 17.9688 5.97656 17.582 4.64062 16.8086C3.30469 16.0352 2.21484 14.9453 1.44141 13.6094C0.667969 12.2734 0.28125 10.832 0.28125 9.25C0.28125 7.70312 0.667969 6.22656 1.44141 4.89062C2.21484 3.55469 3.30469 2.5 4.64062 1.72656C5.97656 0.953125 7.41797 0.53125 9 0.53125ZM16.5938 9.25C16.5938 7.87891 16.2422 6.61328 15.5742 5.45312C14.8711 4.29297 13.957 3.37891 12.7969 2.67578C11.6016 2.00781 10.3359 1.65625 8.96484 1.65625C7.59375 1.65625 6.32812 2.00781 5.16797 2.67578C4.00781 3.37891 3.09375 4.29297 2.42578 5.45312C1.72266 6.64844 1.40625 7.91406 1.40625 9.28516C1.40625 10.6562 1.72266 11.9219 2.42578 13.082C3.09375 14.2422 4.00781 15.1562 5.20312 15.8242C6.36328 16.5273 7.62891 16.8438 9 16.8438C10.3711 16.8438 11.6367 16.5273 12.7969 15.8242C13.957 15.1562 14.8711 14.2422 15.5742 13.0469C16.2422 11.8867 16.5938 10.6211 16.5938 9.25ZM11.3555 12.3438C11.4258 12.4141 11.5312 12.4492 11.6719 12.4492C11.7773 12.4492 11.8828 12.3789 11.9531 12.2734L12.2344 11.8516C12.3047 11.7812 12.3047 11.6758 12.3047 11.5703C12.3047 11.4648 12.2344 11.3594 12.1641 11.2891L9.66797 9.46094V4.32812C9.66797 4.22266 9.59766 4.11719 9.52734 4.04688C9.45703 3.97656 9.35156 3.90625 9.24609 3.90625H8.75391C8.61328 3.90625 8.50781 3.97656 8.4375 4.04688C8.36719 4.11719 8.33203 4.22266 8.33203 4.32812V9.95312C8.33203 10.0938 8.36719 10.1992 8.50781 10.2695L11.3555 12.3438Z" fill="#3C5185"/>
</svg>
